<?xml  version="1.0" encoding="UTF-8"?>
<!DOCTYPE svg PUBLIC "-//W3C//DTD SVG 1.0//EN" "http://www.w3.org/TR/2001/REC-SVG-20010904/DTD/svg10.dtd" >
<svg xmlns="http://www.w3.org/2000/svg" >
<metadata>
<version>1.0</version>
<id><![CDATA[ITC Charter W10]]></id>
<vendor>Monotype Imaging Inc.</vendor>
<credits>
<name>Fonts.com WebFonts</name>
<URL>http://webfonts.fonts.com</URL>
<role>Home of the Web fonts</role>
</credits>
<license>
<URL>http://webfonts.fonts.com/Legal</URL>
</license>
<copyright><![CDATA[Copyright (c) 1990-2000 ParaType Inc.. All Rights Reserved. Charter is a registered trade mark of International Typeface Corporation.]]></copyright>
<trademark><![CDATA[ITC Charter is a registered trade mark of International Typeface Corporation.]]></trademark>
<licensee>
<name></name>
</licensee>
</metadata>
<defs >
<font horiz-adv-x="575" id="e766af79-a71c-49d4-be1d-9fab5b398aa9">
<font-face font-family="" panose-1="2 6 5 3 5 5 6 2 2 3" ascent="966" descent="-312" units-per-em="1000" alphabetic="0">
</font-face>
<missing-glyph horiz-adv-x="233" />

<glyph unicode="&#xA;" />
<glyph unicode="&#xD;" />
<glyph unicode=" " horiz-adv-x="233" />
<glyph unicode="!" horiz-adv-x="340" d="M112 49Q112 73 129 90T170 107Q194 107 211 90T228 49Q228 25 211 8T170 -9Q146 -9 129 8T112 49ZM117 567Q116 573 116 581T115 604Q115 652 130 667T170 683Q194 683 209 668T225 604Q225 589 225 581T223 567L194 171H146L117 567Z"  />
<glyph unicode="&quot;" horiz-adv-x="332" d="M238 422L206 645L205 666Q205 714 246 714Q265 714 276 702T288 666L286 645L254 422H238ZM77 422L45 645L44 666Q44 689 54 701T85 714Q104 714 115 702T127 666L125 645L93 422H77Z"  />
<glyph unicode="#" horiz-adv-x="746" d="M275 277H424L475 423H324L275 277ZM418 692L339 470H493L573 709L620 692L542 470H681V423H526L477 277H640V230H461L377 -23L330 -7L410 230H257L174 -23L127 -7L209 230H65V277H224L272 423H114V470H288L371 710L418 692Z"  />
<glyph unicode="$" horiz-adv-x="556" d="M302 46Q358 57 386 90T415 173Q415 218 389 246T302 294V46ZM259 625Q209 612 185 582T161 507Q161 422 259 392V625ZM302 743V672H310Q345 672 386 667T470 650V494H425L410 587L395 608Q369 617 349 621T302 625V380Q408 350 453 308T498 195Q498 119 448 70T302 0V-102H259V0Q195 2 149 8T58 25V193H104L122 84L131 71Q162 57 190 52T259 46V306Q163 332 120 375T76 488Q76 560 124 609T259 672V743H302Z"  />
<glyph unicode="%" horiz-adv-x="852" d="M669 371Q631 371 612 327T592 197Q592 24 669 24Q709 24 729 68T750 197Q750 283 730 327T669 371ZM673 407Q742 407 781 351T821 197Q821 99 781 44T671 -12Q601 -12 561 43T521 197Q521 297 561 352T673 407ZM669 671L241 0H181L608 671H669ZM179 647Q141 647 122 603T102 473Q102 300 179 300Q219 300 239 344T260 473Q260 559 240 603T179 647ZM183 683Q252 683 291 627T331 473Q331 376 291 320T181 264Q111 264 71 319T31 472Q31 572 71 627T183 683Z"  />
<glyph unicode="&amp;" horiz-adv-x="704" d="M223 335Q201 319 186 305T162 275T149 242T145 204Q145 170 156 142T187 92T235 60T296 48Q332 48 364 62T431 108L223 335ZM276 390Q328 416 351 447T374 526Q374 577 348 607T277 637Q236 637 210 610T183 540Q183 522 187 506T203 472T231 435T276 390ZM483 171Q508 206 519 231T539 289L521 308L466 316V357H669V316L597 306Q589 280 581 258T562 216T541 177T514 136L592 41H683V0H507V24L462 74Q405 27 360 8T264 -12Q219 -12 180 3T113 44T69 106T53 185Q53 246 83 287T185 364Q161 389 145 409T120 446T107 481T103 518Q103 553 117 583T155 636T214 670T287 683Q324 683 355 672T410 640T445 591T458 528Q458 501 451 479T426 436T380 396T311 357L483 171Z"  />
<glyph unicode="&apos;" horiz-adv-x="171" d="M77 422L45 645L44 666Q44 689 54 701T85 714Q104 714 115 702T127 670Q127 665 127 658T125 645L93 422H77Z"  />
<glyph unicode="(" horiz-adv-x="417" d="M386 676Q335 665 298 638T238 563T203 446T191 285Q191 195 202 127T238 12T298 -62T386 -100V-142Q319 -135 267 -103T179 -15T125 116T106 287Q106 479 177 589T386 718V676Z"  />
<glyph unicode=")" horiz-adv-x="417" d="M31 718Q168 700 239 590T311 287Q311 192 293 116T238 -15T150 -102T31 -142V-100Q82 -90 118 -63T179 12T214 127T226 286Q226 378 215 446T180 562T119 637T31 676V718Z"  />
<glyph unicode="*" horiz-adv-x="500" d="M244 484L197 363L134 338V410L234 491L244 484ZM369 410V338L302 364L255 484L266 491L369 410ZM446 571L401 507H273L269 520L377 589L446 571ZM289 657L257 532H243L211 657L250 718L289 657ZM54 571L99 507H227L231 520L123 589L54 571Z"  />
<glyph unicode="+" horiz-adv-x="833" d="M124 269V327H387V596H445V327H709V269H445V0H387V269H124Z"  />
<glyph unicode="&#x2c;" horiz-adv-x="278" d="M39 -136Q75 -132 96 -116T129 -80T145 -39T149 -4V7H85Q78 14 74 24T69 48Q69 65 74 76T89 94T109 103T130 106Q152 106 167 97T191 75T204 44T208 12Q208 -24 196 -55T161 -110T107 -150T39 -170V-136Z"  />
<glyph unicode="-" horiz-adv-x="319" d="M272 274V207H47V274H272Z"  />
<glyph unicode="." horiz-adv-x="280" d="M76 55Q76 81 95 100T140 119Q166 119 185 100T204 55Q204 29 185 10T140 -9Q114 -9 95 10T76 55Z"  />
<glyph unicode="/" horiz-adv-x="542" d="M101 -93H40L469 671H530L101 -93Z"  />
<glyph unicode="0" horiz-adv-x="556" d="M276 635Q208 635 172 564T135 335Q135 287 140 234T160 137T203 65T278 36Q300 36 317 43T346 60T368 84T384 112Q397 140 409 192T421 337Q421 417 411 474T378 570Q372 581 363 592T342 613T314 629T276 635ZM281 683Q300 683 321 680T363 667T405 641T445 600Q479 555 497 490T515 339Q515 283 508 240T492 167T472 116T455 86Q437 58 416 39T372 9T325 -7T278 -12Q229 -12 192 5T129 52T86 117T59 192T45 268T41 334Q41 359 43 391T52 459T72 530T108 596Q128 623 150 640T194 666T239 679T281 683Z"  />
<glyph unicode="1" horiz-adv-x="556" d="M346 683V61L358 41H470V0H122V48H241L253 66V603L90 576V618L316 683H346Z"  />
<glyph unicode="2" horiz-adv-x="556" d="M442 80L460 164H505V0H42V63Q94 106 126 132T178 176T214 207T247 239Q272 263 296 290T340 347T372 413T385 489Q385 556 351 594T254 632Q206 632 164 608V501Q151 492 139 489T118 486Q110 486 100 488T82 497T69 514T63 541Q63 567 78 592T122 638T190 670T276 683Q318 683 355 670T421 633T466 575T483 498Q483 463 473 431T444 370T402 312T349 257Q325 233 302 213T255 172T203 129T141 80H442Z"  />
<glyph unicode="3" horiz-adv-x="556" d="M153 509Q142 501 131 499T112 496Q84 496 71 513T58 550Q58 583 78 608T130 649T199 674T269 683Q319 683 356 670T417 633T454 580T466 516Q466 484 455 458T423 411T376 377T317 355V353Q351 351 383 341T439 311T477 262T492 194Q492 179 489 160T478 121T453 80T412 40Q377 14 332 1T239 -12Q202 -12 167 -3T103 21T58 56T41 99Q41 118 55 134T98 150Q110 150 127 145L158 60Q175 49 194 43T239 36Q278 36 308 49T359 84T389 134T400 193Q400 254 363 286T253 319Q244 319 231 318T209 316L199 315V374H228Q246 374 271 379T319 398T358 438T374 504Q374 521 369 546T342 594Q319 618 293 625T245 632Q229 632 206 628T153 603V509Z"  />
<glyph unicode="4" horiz-adv-x="556" d="M102 259H349V568L102 259ZM427 677V259H539V194H427V-38H349V194H27V259L368 677H427Z"  />
<glyph unicode="5" horiz-adv-x="556" d="M459 671V593H163V393Q196 403 224 406T271 409Q308 409 346 400T416 368T468 310T488 219Q488 168 469 126T415 52Q389 29 344 9T227 -12Q223 -12 208 -11T174 -7T132 3T92 21T62 47T50 85Q50 104 64 121T109 138Q117 138 122 137T132 135L172 49Q180 46 197 41T242 35Q269 35 296 44T346 74T382 126T396 200Q396 246 376 275T325 320T258 341T191 347Q172 347 152 346T101 341V671H459Z"  />
<glyph unicode="6" horiz-adv-x="556" d="M144 282V273Q144 210 156 166T189 92T236 50T290 36Q307 36 331 44T378 74T417 130T433 220Q433 268 420 300T385 350T336 377T282 385Q253 385 217 376T144 340V282ZM443 656H435Q359 656 307 629T222 560T171 471T147 384Q199 423 241 434T313 445Q372 445 412 425T478 373T514 303T525 228Q525 185 510 139T452 54Q427 30 386 9T284 -12Q232 -12 195 5T131 49T89 109T65 176T53 238T50 285Q50 368 75 444T149 578T272 673T443 714V656Z"  />
<glyph unicode="7" horiz-adv-x="556" d="M531 671V631L199 -15V-38H116L442 595H134L118 504H71V671H531Z"  />
<glyph unicode="8" horiz-adv-x="556" d="M324 370Q337 379 351 391T378 421T397 461T405 512Q405 538 398 561T376 601T338 628T284 638Q254 638 231 627T193 598T170 560T162 521Q162 463 203 430T324 370ZM222 330Q185 315 165 292T136 246T126 205T124 182Q124 162 130 137T153 90T201 53T280 37Q315 37 342 47T387 75T414 117T423 168Q423 203 410 226T372 266T309 297T222 330ZM366 352Q384 346 408 334T455 302T493 252T509 181Q509 131 490 94T438 33T363 -3T275 -15Q237 -15 197 -6T123 26T69 84T47 175Q47 211 58 239T89 290T133 327T184 351Q139 369 109 406T79 504Q79 538 90 570T126 628T190 670T286 686Q340 686 377 669T438 626T471 571T481 520Q481 491 472 466T447 419T410 381T366 352Z"  />
<glyph unicode="9" horiz-adv-x="556" d="M410 321Q415 342 418 367T421 428Q421 456 417 492T398 559T355 613T279 635Q243 635 220 622T182 594Q166 577 152 544T137 456Q137 403 150 374T174 332Q191 312 217 299T284 286Q316 286 348 295T410 321ZM103 -4Q107 -2 122 5T159 24T205 51T254 85Q310 127 343 173T398 271Q342 245 305 239T247 232Q195 232 159 250T97 295Q79 315 61 352T43 447Q43 510 65 553T118 624Q144 647 185 665T287 683Q320 683 346 677T392 661T426 640T449 619Q460 607 471 590T492 550T507 497T513 430Q513 352 488 281T413 149T291 37T126 -50L103 -4Z"  />
<glyph unicode=":" horiz-adv-x="320" d="M96 55Q96 81 115 100T160 119Q186 119 205 100T224 55Q224 29 205 10T160 -9Q134 -9 115 10T96 55ZM96 417Q96 443 115 462T160 481Q186 481 205 462T224 417Q224 391 205 372T160 353Q134 353 115 372T96 417Z"  />
<glyph unicode=";" horiz-adv-x="320" d="M65 -136Q101 -132 122 -116T155 -80T171 -39T175 -4V7H111Q104 14 100 24T95 48Q95 65 100 76T115 94T135 103T156 106Q178 106 193 97T217 75T230 44T234 12Q234 -24 222 -55T187 -110T133 -150T65 -170V-136ZM96 417Q96 443 115 462T160 481Q186 481 205 462T224 417Q224 391 205 372T160 353Q134 353 115 372T96 417Z"  />
<glyph unicode="&lt;" horiz-adv-x="833" d="M704 497L216 298L704 99V37L129 273V323L704 559V497Z"  />
<glyph unicode="=" horiz-adv-x="833" d="M709 234V176H124V234H709ZM709 420V362H124V420H709Z"  />
<glyph unicode="&gt;" horiz-adv-x="833" d="M704 323V273L129 37V99L617 298L129 497V559L704 323Z"  />
<glyph unicode="?" horiz-adv-x="486" d="M143 49Q143 73 160 90T201 107Q225 107 242 90T259 49Q259 25 242 8T201 -9Q177 -9 160 8T143 49ZM227 171H174V317Q176 318 187 322T212 334T244 353T275 381Q299 407 308 436T318 498Q318 540 306 566T274 609T228 631T174 637L133 538Q131 538 127 538T116 537Q107 537 97 539T77 546T61 561T55 588Q55 600 62 616T88 648T134 673T205 683Q305 683 357 635T410 503Q410 463 395 431T355 372T297 325T227 288V171Z"  />
<glyph unicode="@" horiz-adv-x="942" d="M553 450Q548 451 539 451T526 452Q493 452 464 435T413 387T378 316T365 229Q365 175 386 147T446 118Q475 118 499 133T553 184L594 394L553 450ZM699 488Q696 480 694 473T689 457T684 435T676 402L672 381L633 209Q628 189 627 177T625 154Q625 134 636 123T665 111Q695 111 724 133T775 191T811 275T825 372Q825 435 804 486T745 573T654 629T534 649Q451 649 380 619T258 537T177 413T147 257Q147 176 172 109T245 -5T359 -78T506 -104Q574 -104 635 -87T767 -31L781 -65Q699 -110 625 -131T477 -153Q391 -153 318 -124T191 -42T107 84T76 244Q76 340 110 422T205 564T349 658T530 692Q608 692 671 670T778 605T847 504T871 372Q871 310 851 253T797 151T717 81T623 55Q585 55 568 75T551 141Q508 96 474 77T404 57Q377 57 354 69T315 102T289 152T280 218Q280 273 300 322T354 409T433 469T528 492Q553 492 575 486T627 465L645 488H699Z"  />
<glyph unicode="A" horiz-adv-x="640" d="M201 297H403L300 574L201 297ZM350 679L590 53L650 41V0H423V41L485 46L492 60L420 251H184L113 60L123 46L188 41V0H-8V41L50 53L284 679H350Z"  />
<glyph unicode="B" horiz-adv-x="604" d="M197 50Q217 48 234 47T270 46Q295 46 328 49T390 66T439 109T459 190Q459 210 453 237T422 287Q408 300 390 307T354 317T320 322T294 323Q283 323 270 323T243 321T217 319T197 317V50ZM197 367Q207 366 216 366Q225 366 234 366Q287 366 322 377T379 408T410 452T419 503Q419 542 404 566T364 603T312 622T259 627Q238 627 220 626T197 624V367ZM288 671Q325 671 368 665T444 641Q486 618 501 585T517 513Q517 484 508 456T471 404Q451 387 423 375T372 358V356Q396 355 431 348T495 324Q530 301 544 268T559 192Q559 160 547 123T494 53Q472 35 446 25T393 9T341 2T297 0H33V41L90 46L107 60V611L90 625L33 630V671H288Z"  />
<glyph unicode="C" horiz-adv-x="632" d="M588 23Q541 6 491 -3T390 -12Q360 -12 327 -8T261 8T196 40T135 92Q123 104 108 125T78 177T53 248T43 340Q43 386 52 425T76 497T110 555T152 600Q170 616 193 631T248 657T316 676T400 683Q464 683 511 672T588 649V495H532L517 586L504 604Q481 615 455 622T393 630Q322 630 275 604T200 537T160 443T148 339Q148 268 166 216T211 129Q223 114 240 99T281 70T336 49T406 41Q433 41 454 45T494 54L510 70L532 181H588V23Z"  />
<glyph unicode="D" horiz-adv-x="693" d="M197 46H276Q350 46 397 65T474 112Q506 143 526 198T547 338Q547 424 525 479T466 567T380 612T276 625H197V46ZM280 671Q374 671 434 650T529 603Q551 587 572 564T611 508T639 433T650 336Q650 239 611 163T496 43Q451 17 400 9T280 0H33V41L90 46L107 60V611L90 625L33 630V671H280Z"  />
<glyph unicode="E" horiz-adv-x="576" d="M33 41L90 46L107 60V611L90 625L33 630V671H512V525H456L442 610L428 625H197V372H361L375 386L386 459H432V239H386L375 312L361 326H197V46H464L478 61L492 163H548V0H33V41Z"  />
<glyph unicode="F" horiz-adv-x="546" d="M41 41L98 46L115 60V611L98 625L33 630V671H513V515H457L443 610L429 625H205V362H369L383 376L394 449H440V228H394L383 302L369 316H205V60L222 46L293 41V0H41V41Z"  />
<glyph unicode="G" horiz-adv-x="694" d="M667 322V281L612 276L595 262V23Q557 11 503 0T388 -12Q321 -12 258 9T140 87Q123 105 106 129T75 184T52 255T43 341Q43 391 53 431T79 504T115 561T156 603Q186 628 217 643T280 668T343 680T402 683Q426 683 474 679T594 654V495H538L523 586L509 604Q486 615 458 622T394 630Q329 630 288 609T223 564Q195 535 172 481T148 342Q148 286 161 232T204 136T283 67T406 41Q428 41 453 44T505 54V262L488 276L417 281V322H667Z"  />
<glyph unicode="H" horiz-adv-x="738" d="M276 671V630L214 625L197 611V375H541V611L524 625L462 630V671H705V630L648 625L631 611V60L648 46L705 41V0H462V41L524 46L541 60V329H197V60L214 46L276 41V0H33V41L90 46L107 60V611L90 625L33 630V671H276Z"  />
<glyph unicode="I" horiz-adv-x="322" d="M35 41L99 46L116 60V611L99 625L35 630V671H287V630L223 625L206 611V60L223 46L287 41V0H35V41Z"  />
<glyph unicode="J" horiz-adv-x="444" d="M254 625L187 630V671H440V630L378 625L361 611V256Q361 233 359 205T351 148T333 92T301 44Q283 24 262 13T219 -3T179 -10T145 -12Q127 -12 93 -9T12 12V179H68L92 53L106 40Q122 36 141 36Q184 36 210 56T249 107T267 177T271 252V611L254 625Z"  />
<glyph unicode="K" horiz-adv-x="612" d="M33 41L90 46L107 60V611L90 625L33 630V671H276V630L214 625L197 611V340H235L457 611L451 625L395 630V671H603V630L537 622L327 372L554 41H627V0H462V30L271 299H197V60L214 46L276 41V0H33V41Z"  />
<glyph unicode="L" horiz-adv-x="520" d="M26 41L90 46L107 60V611L90 625L26 630V671H270V630L213 625L197 611V46H422L436 62L453 182H505V0H26V41Z"  />
<glyph unicode="M" horiz-adv-x="868" d="M31 41L91 49L109 68V611L96 625L30 630V671H242V644L430 142L620 640V671H835V630L773 625L761 611V60L773 46L835 41V0H595V41L661 46L671 60V624L434 0H391L163 614V68L181 49L242 41V0H31V41Z"  />
<glyph unicode="N" horiz-adv-x="714" d="M29 41L90 49L108 68V611L90 625L26 630V671H214V646L556 134V604L538 622L478 630V671H688V630L628 622L610 604V0H544L162 568V68L180 49L240 41V0H29V41Z"  />
<glyph unicode="O" horiz-adv-x="732" d="M364 634Q307 634 266 610T199 545T160 450T148 337Q148 322 149 298T156 244T173 184T204 124Q222 97 243 81T285 54T328 41T367 37Q380 37 399 39T440 50T483 75T525 118Q546 146 557 177T575 239T582 294T584 334Q584 412 564 473T509 573Q489 594 468 606T428 624T391 632T364 634ZM369 687Q444 687 503 660T604 585T667 474T689 336Q689 255 664 191T599 83Q582 65 560 48T509 16T445 -7T367 -16Q289 -16 232 11T137 79Q122 94 106 117T75 172T52 245T43 336Q43 388 53 430T79 506T115 565T155 609Q170 622 190 636T237 661T297 679T369 687Z"  />
<glyph unicode="P" horiz-adv-x="566" d="M205 305Q230 300 248 300T272 299Q308 299 338 310T391 342T426 396T439 469Q439 501 431 530T398 583Q383 597 366 605T330 618T294 624T260 625Q243 625 229 625T205 623V305ZM41 41L98 46L115 60V611L98 625L33 630V671H261Q346 671 400 657T485 616T527 555T539 477Q539 413 518 370T461 301T379 264T281 253Q263 253 239 254T205 257V60L222 46L293 41V0H41V41Z"  />
<glyph unicode="Q" horiz-adv-x="732" d="M364 634Q307 634 266 610T199 545T160 450T148 337Q148 322 149 298T156 244T173 184T204 124Q222 97 243 81T285 54T328 41T367 37Q380 37 399 39T440 50T483 75T525 118Q546 146 557 177T575 239T582 294T584 334Q584 412 564 473T509 573Q489 594 468 606T428 624T391 632T364 634ZM650 -160Q617 -167 580 -171T508 -176Q492 -176 473 -175T434 -169T395 -155T361 -131Q347 -118 339 -102T327 -70T321 -39T319 -11Q299 -9 271 -1T212 24T151 67T97 131T58 219T43 336Q43 388 53 430T79 506T115 565T155 609Q170 622 190 636T237 661T297 679T370 687Q445 687 504 660T604 585T667 473T689 336Q689 255 664 191T599 83Q571 53 526 25T414 -12Q415 -47 428 -70T463 -106T509 -125T558 -130Q570 -130 591 -129T650 -119V-160Z"  />
<glyph unicode="R" horiz-adv-x="646" d="M197 346Q206 345 222 345T257 344Q271 344 288 345T324 350T360 361T392 383Q416 406 422 433T429 485Q429 514 421 543T384 593Q370 603 353 609T317 619T280 624T245 625H197V346ZM288 671Q320 671 362 666T441 642T503 589T529 496Q529 469 520 437T481 377Q460 358 428 345T367 327V325Q401 318 424 303T462 266T486 220T501 168Q510 132 519 107T545 67T584 45T645 38H656V0Q635 -4 613 -6T571 -8Q552 -8 526 -5T477 17Q463 28 453 44T435 77T423 111T414 143Q402 189 388 219T355 268T309 293T246 300Q233 300 219 300T197 298V60L214 46L271 41V0H33V41L90 46L107 60V611L90 625L33 630V671H288Z"  />
<glyph unicode="S" horiz-adv-x="556" d="M60 196H116L131 81L144 64Q159 56 184 49T254 41Q287 41 315 47T363 68T395 106T407 164Q407 202 393 220T359 252Q333 269 302 283T238 312T176 343T123 379T85 425T71 486Q71 547 94 585T153 646T229 675T304 683Q334 683 377 678T472 655V500H416L405 595L390 612Q373 621 352 627T300 633Q273 633 249 625T206 602T176 565T164 513Q164 484 176 462T217 423Q241 408 271 395T332 368T394 338T447 301T485 254T500 192Q500 129 474 90T409 28T323 -3T234 -12Q168 -12 125 0T60 20V196Z"  />
<glyph unicode="T" horiz-adv-x="594" d="M578 671V515H523L509 610L495 625H342V60L359 46L426 41V0H168V41L235 46L252 60V625H99L85 610L71 515H16V671H578Z"  />
<glyph unicode="U" horiz-adv-x="694" d="M268 671V630L206 625L189 611V249Q189 235 190 217T194 180T205 140T226 104Q240 87 257 77T293 60T331 52T368 50Q406 50 443 59T508 102Q521 118 529 138T541 178T546 217T547 249V604L528 622L468 630V671H679V630L619 622L601 604V240Q601 198 594 154T562 72T486 12T351 -12Q266 -12 216 10T140 68T107 149T99 240V611L82 625L25 630V671H268Z"  />
<glyph unicode="V" horiz-adv-x="618" d="M210 671V630L152 625L141 611L329 107L510 611L500 625L438 630V671H637V630L575 619L345 -5H276L41 619L-23 630V671H210Z"  />
<glyph unicode="W" horiz-adv-x="928" d="M63 617L0 630V671H230V630L167 623L159 609L282 147L443 671H513L677 136L798 605L787 619L720 630V671H927V630L860 617L701 0H633L464 547L299 0H231L63 617Z"  />
<glyph unicode="X" horiz-adv-x="600" d="M252 671V630L192 625L184 613L315 407L457 609L448 622L390 630V671H594V630L530 621L347 360L541 53L609 41V0H356V41L423 48L430 62L289 289L131 65L137 47L204 41V0H-9V41L57 54L258 335L77 618L11 630V671H252Z"  />
<glyph unicode="Y" horiz-adv-x="586" d="M219 671V630L162 625L152 614L305 339L473 606L464 620L403 630V671H607V630L546 618L337 284V60L353 46L421 41V0H163V41L231 46L247 60V272L48 621L-13 630V671H219Z"  />
<glyph unicode="Z" horiz-adv-x="586" d="M534 671V629L154 49H456L467 62L485 181H539V0H45V41L424 623H157L138 610L122 516H67V671H534Z"  />
<glyph unicode="[" horiz-adv-x="421" d="M376 708V665H218V-90H376V-132H139V708H376Z"  />
<glyph unicode="\" horiz-adv-x="542" d="M73 671L502 -93H441L12 671H73Z"  />
<glyph unicode="]" horiz-adv-x="421" d="M282 -132H45V-90H203V665H45V708H282V-132Z"  />
<glyph unicode="^" horiz-adv-x="1000" d="M544 714L798 438H753L500 651L246 438H202L457 714H544Z"  />
<glyph unicode="_" horiz-adv-x="500" d="M500 -80V-138H0V-80H500Z"  />
<glyph unicode="`" horiz-adv-x="500" d="M203 736L300 546H250L104 736H203Z"  />
<glyph unicode="a" horiz-adv-x="506" d="M334 268Q302 259 264 247T200 222Q188 216 176 209T153 191T137 166T130 130Q130 116 134 102T147 75T171 55T210 47Q230 47 258 55T334 92V268ZM334 58Q276 17 237 4T170 -9Q136 -9 112 2T73 33T50 75T42 122Q42 150 51 170T74 205T107 230T143 247Q156 252 172 258T211 270T264 285T334 303V335Q334 350 334 369T325 405T299 434T246 446Q226 446 206 442T167 431V347H98Q89 347 78 351T67 373Q67 393 77 413T112 451T174 479T267 490Q276 490 290 490T322 485T356 474T386 452Q398 440 404 425T414 395T417 368T418 347V57L435 36H488V0H348L334 58Z"  />
<glyph unicode="b" horiz-adv-x="540" d="M169 46Q177 45 193 45T223 44Q253 44 286 51T348 79T394 138T413 241Q413 276 407 311T383 373T335 418T256 436Q230 436 207 431T169 422V46ZM169 736V456Q192 467 228 478T305 490Q346 490 382 477T445 435T487 362T503 255Q503 194 484 144T416 56Q391 36 363 25T308 9T256 2T213 0H85V669H8V700L131 736H169Z"  />
<glyph unicode="c" horiz-adv-x="446" d="M425 42Q368 8 329 0T263 -9Q214 -9 173 7T101 56T54 134T37 240Q37 298 54 344T102 423T179 473T279 490Q320 490 347 481T392 458T416 428T424 396Q424 371 409 356T370 341Q362 341 349 344T323 355V437Q315 442 303 446T273 450Q255 450 228 442T176 404T140 333T129 249Q129 241 130 223T136 183T151 138T179 95T226 64T297 51Q336 51 369 65T425 94V42Z"  />
<glyph unicode="d" horiz-adv-x="566" d="M383 432Q371 435 347 440T302 446Q257 446 224 429T170 384T138 318T127 238Q127 190 139 156T172 99T219 66T275 55Q303 55 331 65T383 89V432ZM306 669V700L429 736H467V57L484 41L532 36V0H383V52Q335 13 297 2T231 -9Q187 -9 152 8T91 57T51 132T37 225Q37 266 45 299T67 359T97 404T130 436Q161 461 203 475T296 490Q316 490 340 487T383 481V669H306Z"  />
<glyph unicode="e" horiz-adv-x="490" d="M359 305V330Q359 345 355 364T345 395Q343 399 337 408T321 425T295 439T257 446Q225 446 202 433T163 400T139 355T128 305H359ZM448 51Q408 23 361 7T264 -9Q207 -9 165 10T94 62T51 140T37 237Q37 294 55 342T107 425Q117 435 132 446T167 468T212 484T269 490Q298 490 329 482T387 451T430 390T447 291Q447 277 447 263H123V248Q123 211 133 177T164 114T216 66T291 48Q316 48 355 58T448 106V51Z"  />
<glyph unicode="f" horiz-adv-x="322" d="M30 36L83 41L101 57V421H37V453L101 468V478Q101 544 118 594T163 677T227 727T301 744Q341 744 361 727T382 686Q382 666 370 654T341 637L250 697Q222 680 204 646T185 541V468H324V421H185V57L202 41L264 36V0H30V36Z"  />
<glyph unicode="g" horiz-adv-x="522" d="M206 30Q201 28 187 23T158 5T132 -25T120 -69Q120 -90 130 -108T158 -141T201 -164T256 -172Q282 -172 308 -166T356 -146T391 -111T405 -61Q405 -49 402 -39T389 -19T358 -2T303 12L206 30ZM244 450Q202 450 175 420T148 329Q148 322 150 302T161 261T190 223T246 206Q263 206 280 212T312 233T335 271T344 328Q344 348 339 369T323 409T292 438T244 450ZM512 463V415H402Q409 406 419 384T430 324Q430 295 418 267T383 217T324 180T243 166Q231 166 222 167Q215 154 213 140T211 118Q211 106 213 98L309 83Q347 77 378 68T432 46T467 12T479 -35Q479 -57 466 -88T422 -148T342 -197T220 -218Q162 -218 132 -206T88 -184Q69 -170 55 -147T40 -89Q40 -37 70 -5T148 35Q138 52 138 75Q138 101 151 126T186 175Q161 181 139 193T99 224T72 268T62 326Q62 340 67 367T91 422T149 469T255 490Q278 490 307 485T369 463H512Z"  />
<glyph unicode="h" horiz-adv-x="566" d="M180 736V431Q198 442 219 452T263 471T306 485T345 490Q382 490 407 478T449 446T471 398T478 339V57L495 41L549 36V0H329V36L377 41L394 57V322Q394 336 391 358T373 398Q358 415 337 419T299 424Q279 424 252 419T180 392V57L198 41L245 36V0H25V36L79 41L96 57V669H19V700L142 736H180Z"  />
<glyph unicode="i" horiz-adv-x="280" d="M189 486V57L206 41L260 36V0H34V36L88 41L105 57V419H34V450L151 486H189ZM95 650Q95 674 112 691T153 708Q177 708 194 691T211 650Q211 626 194 609T153 592Q129 592 112 609T95 650Z"  />
<glyph unicode="j" horiz-adv-x="266" d="M37 419V450L154 486H192V84Q192 20 187 -24T170 -99T138 -152T88 -191Q84 -193 75 -197T54 -206T25 -214T-9 -218Q-35 -218 -49 -210T-69 -192T-77 -173T-78 -162Q-78 -145 -68 -132T-41 -112L56 -171Q70 -164 80 -156T96 -132T105 -89T108 -16V419H37ZM88 650Q88 674 105 691T146 708Q170 708 187 691T204 650Q204 626 187 609T146 592Q122 592 105 609T88 650Z"  />
<glyph unicode="k" horiz-adv-x="518" d="M25 36L79 41L96 57V669H19V700L142 736H180V255H198L351 426L344 440L299 444V481H489V444L425 436L288 291L465 43L529 38V0H373V33L237 227H180V57L198 41L245 36V0H25V36Z"  />
<glyph unicode="l" horiz-adv-x="284" d="M28 36L87 41L104 57V669H27V700L150 736H188V57L206 41L264 36V0H28V36Z"  />
<glyph unicode="m" horiz-adv-x="844" d="M185 431Q201 440 221 450T264 470T307 484T345 490Q381 490 408 473T455 424Q474 436 497 448T544 469T589 484T627 490Q664 490 689 476T729 439T750 390T756 339V57L773 41L827 36V0H607V36L654 41L672 57V322Q672 370 654 397T585 424Q556 424 527 415T470 392V57L488 41L535 36V0H321V36L369 41L386 57V322Q386 352 379 371T361 402T334 419T301 424Q268 424 237 414T185 392V57L202 41L250 36V0H30V36L84 41L101 57V419H30V450L147 486H185V431Z"  />
<glyph unicode="n" horiz-adv-x="570" d="M30 36L84 41L101 57V419H30V450L147 486H185V431Q195 437 214 446T256 466T303 483T350 490Q364 490 386 486T430 467T467 421T483 339V57L500 41L554 36V0H334V36L382 41L399 57V322Q399 338 397 356T384 389T355 414T303 424Q277 424 249 417T185 392V57L202 41L250 36V0H30V36Z"  />
<glyph unicode="o" horiz-adv-x="540" d="M268 446Q252 446 225 438T173 397Q150 366 141 325T131 241Q131 211 136 178T157 112Q169 88 183 73T212 50T241 38T269 35Q293 35 321 47T372 94T402 167T409 240Q409 256 408 275T402 316T388 358T365 397Q339 429 312 437T268 446ZM271 490Q325 490 368 471T441 417T487 338T503 240Q503 179 483 134T434 58Q411 34 371 13T269 -9Q236 -9 210 -2T162 15T126 38T100 63Q74 91 56 134T37 240Q37 288 51 333T93 413T166 469T271 490Z"  />
<glyph unicode="p" horiz-adv-x="552" d="M177 58Q203 47 221 44T251 41Q295 41 327 57T382 102T414 167T425 245Q425 281 417 314T390 372T345 411T281 426Q252 426 224 416T177 394V58ZM22 -182L77 -177L93 -161V419H22V450L139 486H177V431Q202 450 222 461T261 479T294 488T324 490Q361 490 395 476T456 434T499 361T515 257Q515 184 492 136T441 61Q412 32 370 15T271 -3Q262 -3 239 -2T177 6V-161L194 -177L258 -182V-218H22V-182Z"  />
<glyph unicode="q" horiz-adv-x="530" d="M371 438Q346 445 328 446T302 448Q254 448 221 432T166 387T136 322T127 241Q127 205 135 171T161 109T208 66T282 50Q299 50 317 53T371 65V438ZM371 33Q323 8 289 2T237 -4Q180 -4 142 18T80 75T47 150T37 227Q37 303 63 353T129 436Q154 456 199 474T318 492Q337 492 373 489T458 475Q456 449 456 431T455 402V-161L472 -178L526 -182V-218H291V-178H354L371 -161V33Z"  />
<glyph unicode="r" horiz-adv-x="382" d="M31 36L85 41L102 57V419H30V450L147 486H185V392Q236 445 264 468T314 491Q336 491 351 487T377 478V392H345Q337 402 325 409T296 416Q264 416 237 394T186 343V57L203 41L273 36V0H31V36Z"  />
<glyph unicode="s" horiz-adv-x="400" d="M345 356H297L288 427Q264 440 245 443T215 446Q200 446 185 443T158 433T139 412T131 377Q131 345 154 324T221 283Q255 268 281 254T324 225T351 189T360 141Q360 94 341 65T293 20T231 -3T167 -9Q125 -9 95 -3T42 12V142H90L102 57Q115 50 136 43T184 35Q235 35 258 57T282 115Q282 138 271 154T243 182T206 202T169 219Q120 242 100 257T74 281Q60 298 56 315T51 350Q51 396 71 424T120 466T179 485T228 490Q270 490 297 484T345 469V356Z"  />
<glyph unicode="t" horiz-adv-x="334" d="M25 421V452L91 481L134 574H171V468H323V421H171V157Q171 118 178 97T196 64T222 51T252 48Q276 48 292 50T323 56V19Q281 5 245 1T185 -4Q169 -4 148 -1T111 18Q94 35 91 57T87 98V421H25Z"  />
<glyph unicode="u" horiz-adv-x="572" d="M181 490V160Q181 144 185 120T206 79Q221 63 241 59T278 55Q294 55 323 59T395 84V423H324V454L441 490H479V57L497 41L544 36V0H395V56Q357 28 314 10T229 -9Q205 -9 180 -2T134 28Q110 54 104 85T97 143V423H26V454L143 490H181Z"  />
<glyph unicode="v" horiz-adv-x="494" d="M212 481V445L159 440L147 424L264 97L392 424L384 440L330 445V481H507V445L448 436L273 0H217L56 438L-5 445V481H212Z"  />
<glyph unicode="w" horiz-adv-x="770" d="M214 481V445L161 440L149 424L240 99L374 481H435L553 99L655 424L647 440L593 445V481H770V445L714 436L571 0H509L388 379L253 0H191L58 438L-3 445V481H214Z"  />
<glyph unicode="x" horiz-adv-x="504" d="M233 481V445L187 438L182 428L266 297L357 425L349 438L301 445V481H481V445L425 434L293 259L440 45L500 37V0H287V37L329 44L334 52L241 201L139 56L144 44L201 37V0H12V37L69 45L213 238L79 433L18 445V481H233Z"  />
<glyph unicode="y" horiz-adv-x="496" d="M217 481V445L164 440L152 424L272 113L397 424L389 440L335 445V481H513V445L455 436L255 -50Q235 -98 220 -123T196 -159Q181 -179 157 -198T94 -218Q61 -218 44 -201T26 -161Q26 -151 31 -136T52 -108L148 -146Q178 -113 196 -74T229 4L60 438L-1 445V481H217Z"  />
<glyph unicode="z" horiz-adv-x="468" d="M45 50L312 435H127L113 419L102 341H55V481H416V443L139 46H354L369 62L380 146H431V0H45V50Z"  />
<glyph unicode="{" horiz-adv-x="486" d="M418 666Q380 664 356 658T317 638T297 602T291 546V465Q291 424 284 395T262 345T221 311T160 290Q229 276 260 236T291 121V38Q291 -3 296 -28T315 -69T354 -89T418 -95V-134Q351 -134 311 -126T248 -97T219 -41T211 49V134Q211 172 205 198T184 239T145 261T83 268H65V311H96Q159 311 185 340T211 440V542Q211 627 256 665T403 703H418V666Z"  />
<glyph unicode="|" horiz-adv-x="500" d="M281 764V-236H219V764H281Z"  />
<glyph unicode="}" horiz-adv-x="486" d="M83 703Q185 703 230 665T275 542V440Q275 369 301 340T390 311H421V268H402Q366 268 342 262T303 240T282 198T275 134V49Q275 -6 268 -41T238 -97T175 -126T68 -134V-95Q107 -95 132 -90T171 -69T190 -29T195 38V121Q195 196 226 236T326 290Q290 298 265 311T225 344T202 394T195 465V546Q195 580 190 602T170 637T131 657T68 666V703H83Z"  />
<glyph unicode="~" horiz-adv-x="833" d="M746 306Q691 268 647 252T557 236Q542 236 529 237T500 242T463 253T409 272Q362 289 332 296T275 303Q254 303 234 299T192 286T144 262T86 225V290Q144 328 188 344T276 361Q293 361 307 360T340 354T385 340T451 317Q487 303 510 298T557 293Q578 293 598 297T641 310T689 333T746 370V306Z"  />
<glyph unicode="&#xA0;" horiz-adv-x="233" />
<glyph unicode="&#xA4;" horiz-adv-x="607" d="M302 586Q271 586 244 574T195 541T162 492T150 433Q150 401 162 373T195 324T244 291T304 279Q335 279 363 291T412 324T445 373T457 433Q457 465 445 493T412 541T363 574T302 586ZM178 592Q212 616 240 626T303 636Q338 636 367 626T430 592L530 693L565 657L465 557Q488 525 497 496T507 432Q507 397 498 368T465 307L565 207L530 171L430 272Q398 249 369 239T303 229Q266 229 238 239T178 272L77 171L42 207L143 307Q120 339 110 368T100 432Q100 467 110 496T143 557L42 657L77 693L178 592Z"  />
<glyph unicode="&#xA6;" horiz-adv-x="500" d="M281 199V-171H219V199H281ZM281 699V329H219V699H281Z"  />
<glyph unicode="&#xA7;" horiz-adv-x="500" d="M223 424Q177 402 157 375T136 308Q136 284 142 266T165 231T209 198T279 162Q326 194 345 221T364 284Q364 329 331 362T223 424ZM406 566H361L351 646Q320 663 299 669T254 676Q210 676 182 652T153 591Q153 557 181 535Q188 529 194 525T209 516T235 503T281 481Q365 441 401 401T437 306Q437 199 315 144Q370 118 395 87T420 11Q420 -22 407 -50T368 -98T309 -129T233 -140Q199 -140 166 -133T89 -109L87 20H135L149 -70Q176 -84 198 -90T245 -96Q290 -96 318 -73T347 -12Q347 12 334 31T291 69Q284 73 279 76T263 85T235 98T185 122Q63 179 63 288Q63 342 90 378T181 443Q125 472 103 501T80 576Q80 643 130 680T270 718Q305 718 335 713T406 695V566Z"  />
<glyph unicode="&#xA9;" horiz-adv-x="900" d="M607 127Q562 111 524 107T462 102Q408 102 364 119T287 167T237 241T219 338Q219 390 237 433T287 508T366 557T468 574Q485 574 523 570T607 551V431H564L549 506Q524 522 505 525T475 528Q434 528 403 513T350 471T317 411T306 338Q306 292 320 257T356 197T407 161T465 149Q488 149 511 155T551 168L564 252H607V127ZM450 686Q378 686 316 658T208 583T136 472T109 340Q109 271 135 208T207 98T315 22T450 -6Q522 -6 584 22T692 97T764 208T791 340Q791 409 765 472T693 582T585 658T450 686ZM450 726Q530 726 600 695T723 612T805 489T835 340Q835 261 805 191T723 69T601 -15T450 -46Q370 -46 300 -15T177 68T95 191T65 340Q65 419 95 489T177 611T299 695T450 726Z"  />
<glyph unicode="&#xAB;" horiz-adv-x="442" d="M396 347L279 240L396 132V67L232 200V280L396 413V347ZM199 347L82 240L199 132V67L35 200V280L199 413V347Z"  />
<glyph unicode="&#xAC;" horiz-adv-x="833" d="M709 419V174H653V362H124V419H709Z"  />
<glyph unicode="&#xAD;" horiz-adv-x="319" d="M272 274V207H47V274H272Z"  />
<glyph unicode="&#xAE;" horiz-adv-x="900" d="M403 355Q420 355 442 356T484 366T517 390T531 437Q531 482 499 502T412 523Q404 523 396 523Q388 523 379 522V355H403ZM457 560Q508 560 539 551T589 526T613 491T619 452Q619 422 607 402T577 369T537 349T498 338Q533 333 552 318T581 282T598 241T613 201T641 172T693 160H703V124Q678 119 664 118T644 116Q612 116 591 126T556 151T535 185T521 221Q513 243 506 261T486 291T457 310T412 317Q404 317 396 317T379 315V165L442 158V121H251V157L304 164V516L246 526V560H457ZM450 686Q378 686 316 658T208 583T136 472T109 340Q109 271 135 208T207 98T315 22T450 -6Q522 -6 584 22T692 97T764 208T791 340Q791 409 765 472T693 582T585 658T450 686ZM450 726Q530 726 600 695T723 612T805 489T835 340Q835 261 805 191T723 69T601 -15T450 -46Q370 -46 300 -15T177 68T95 191T65 340Q65 419 95 489T177 611T299 695T450 726Z"  />
<glyph unicode="&#xB0;" horiz-adv-x="330" d="M164 670Q144 670 127 663T96 642T75 610T67 572Q67 530 95 502T165 473Q206 473 234 501T263 572Q263 593 256 610T235 641T203 662T164 670ZM167 710Q195 710 219 699T262 670T292 626T303 572Q303 543 292 518T263 474T219 444T164 433Q135 433 110 443T67 473T38 517T27 571Q27 601 38 626T67 670T111 699T167 710Z"  />
<glyph unicode="&#xB1;" horiz-adv-x="833" d="M124 350V408H387V576H445V408H709V350H445V182H387V350H124ZM709 77V19H124V77H709Z"  />
<glyph unicode="&#xB4;" horiz-adv-x="500" d="M408 736L262 546H212L309 736H408Z"  />
<glyph unicode="&#xB5;" horiz-adv-x="620" d="M17 484H107L114 181Q114 167 115 159T117 145Q126 96 154 72T225 47Q284 47 318 87T350 218L345 484H435L444 167Q444 138 444 125T448 102Q453 75 469 61T508 47Q524 47 539 55T566 79L594 58Q571 25 539 9T471 -8Q430 -8 398 13T352 75Q332 33 300 13T226 -8Q177 -8 143 14T87 90Q96 -186 84 -191T60 -197Q39 -197 24 -183T5 -146Q0 -125 13 -50T24 154L17 484Z"  />
<glyph unicode="&#xB6;" horiz-adv-x="484" d="M458 635L396 625V-79H347V630H271V281H267Q141 281 84 327T26 475Q26 578 82 624T262 671H458V635Z"  />
<glyph unicode="&#xB7;" horiz-adv-x="280" d="M76 55Q76 81 95 100T140 119Q166 119 185 100T204 55Q204 29 185 10T140 -9Q114 -9 95 10T76 55Z"  />
<glyph unicode="&#xBB;" horiz-adv-x="442" d="M407 280V200L244 67V132L361 240L244 347V413L407 280ZM209 280V200L46 67V132L163 240L46 347V413L209 280Z"  />
<glyph unicode="&#x401;" horiz-adv-x="576" d="M33 41L90 46L107 60V611L90 625L33 630V671H512V525H456L442 610L428 625H197V372H361L375 386L386 459H432V239H386L375 312L361 326H197V46H464L478 61L492 163H548V0H33V41ZM334 816Q334 838 349 853T386 868Q408 868 423 853T438 816Q438 794 423 779T386 764Q364 764 349 779T334 816ZM150 816Q150 838 165 853T202 868Q224 868 239 853T254 816Q254 794 239 779T202 764Q180 764 165 779T150 816Z"  />
<glyph unicode="&#x402;" horiz-adv-x="740" d="M578 671V515H523L509 610L495 625H332V366Q393 384 435 388T492 392Q557 392 596 374T657 332Q676 312 690 279T705 196Q705 142 689 103T644 38T579 0T500 -12Q480 -12 456 -9T409 0V120H457L468 46L480 36Q485 35 491 35T504 34Q525 34 544 42T578 68T602 113T611 180Q611 234 596 265T559 313T512 334T466 339Q436 339 401 333T332 316V0H158V41L225 46L242 60V625H99L85 610L71 515H16V671H578Z"  />
<glyph unicode="&#x403;" horiz-adv-x="546" d="M41 41L98 46L115 60V611L98 625L33 630V671H513V489H461L443 609L429 625H205V60L222 46L293 41V0H41V41ZM425 892L285 744H235L325 892H425Z"  />
<glyph unicode="&#x404;" horiz-adv-x="636" d="M592 23Q523 -1 471 -6T386 -12Q320 -12 258 8T149 71T72 179T43 336Q43 384 52 424T76 497T110 556T150 600Q162 610 182 624T233 652T305 674T398 683Q438 683 488 676T592 649V495H536L521 586L508 604Q485 615 456 622T391 630Q322 630 276 605T202 541T162 458T148 372H454V326H148Q148 275 163 219T210 121Q247 73 294 57T396 41Q428 41 451 44T498 54L514 70L536 181H592V23Z"  />
<glyph unicode="&#x405;" horiz-adv-x="556" d="M60 196H116L131 81L144 64Q159 56 184 49T254 41Q287 41 315 47T363 68T395 106T407 164Q407 202 393 220T359 252Q333 269 302 283T238 312T176 343T123 379T85 425T71 486Q71 547 94 585T153 646T229 675T304 683Q334 683 377 678T472 655V500H416L405 595L390 612Q373 621 352 627T300 633Q273 633 249 625T206 602T176 565T164 513Q164 484 176 462T217 423Q241 408 271 395T332 368T394 338T447 301T485 254T500 192Q500 129 474 90T409 28T323 -3T234 -12Q168 -12 125 0T60 20V196Z"  />
<glyph unicode="&#x406;" horiz-adv-x="322" d="M35 41L99 46L116 60V611L99 625L35 630V671H287V630L223 625L206 611V60L223 46L287 41V0H35V41Z"  />
<glyph unicode="&#x407;" horiz-adv-x="322" d="M191 816Q191 838 206 853T243 868Q265 868 280 853T295 816Q295 794 280 779T243 764Q221 764 206 779T191 816ZM27 816Q27 838 42 853T79 868Q101 868 116 853T131 816Q131 794 116 779T79 764Q57 764 42 779T27 816ZM35 41L99 46L116 60V611L99 625L35 630V671H287V630L223 625L206 611V60L223 46L287 41V0H35V41Z"  />
<glyph unicode="&#x408;" horiz-adv-x="444" d="M254 625L187 630V671H440V630L378 625L361 611V256Q361 233 359 205T351 148T333 92T301 44Q283 24 262 13T219 -3T179 -10T145 -12Q127 -12 93 -9T12 12V179H68L92 53L106 40Q122 36 141 36Q184 36 210 56T249 107T267 177T271 252V611L254 625Z"  />
<glyph unicode="&#x409;" horiz-adv-x="926" d="M529 50Q549 48 567 47T605 46Q620 46 639 47T677 52T716 64T750 87Q776 111 783 141T791 198Q791 221 785 250T754 304Q728 331 693 338T626 346Q605 346 581 345T529 338V50ZM610 671V630L546 625L529 611V386Q554 389 580 390T633 392Q651 392 673 391T720 386T768 373T815 349Q853 323 872 287T891 199Q891 168 879 129T826 55Q804 37 778 26T726 9T674 2T629 0H365V41L422 46L439 60V625H281Q279 587 275 544T267 459T257 378T247 310Q240 272 230 231T205 151T171 79T128 23Q104 0 82 -6T46 -12Q36 -12 24 -9T2 0Q-6 5 -13 16T-21 49Q-21 72 -9 86T21 106L95 62Q111 85 125 111T151 169T173 243T192 337Q197 369 206 440T221 607L206 620L119 630V671H610Z"  />
<glyph unicode="&#x40A;" horiz-adv-x="1000" d="M603 50Q623 48 641 47T679 46Q694 46 713 47T751 52T790 64T824 87Q850 111 857 141T865 198Q865 221 859 250T828 304Q802 331 767 338T700 346Q679 346 655 345T603 338V50ZM276 671V630L214 625L197 611V383H513V611L496 625L434 630V671H677V630L620 625L603 611V386Q628 389 654 390T707 392Q741 392 786 385T870 358T937 299T965 199Q965 168 953 129T900 55Q878 37 852 26T800 9T748 2T703 0H434V41L496 46L513 60V337H197V60L214 46L276 41V0H33V41L90 46L107 60V611L90 625L33 630V671H276Z"  />
<glyph unicode="&#x40B;" horiz-adv-x="800" d="M578 671V515H523L509 610L495 625H332V366Q370 377 415 384T504 392Q570 392 611 377T674 335T704 276T712 208V60L729 46L786 41V0H548V41L605 46L622 60V213V218Q622 238 618 262T594 306Q584 316 570 322T541 332T511 337T482 339Q461 339 420 335T332 316V60L349 46L416 41V0H158V41L225 46L242 60V625H99L85 610L71 515H16V671H578Z"  />
<glyph unicode="&#x40C;" horiz-adv-x="644" d="M276 671V630L214 625L197 611V366H270Q281 366 298 369T333 386Q353 401 366 423T384 457L427 553Q437 575 449 597T476 638T510 667T555 679Q585 679 604 664T624 618Q624 599 615 585T590 564L518 608Q502 588 496 574T482 542L439 446Q418 398 393 378T347 350V348Q379 342 403 327T443 294Q452 283 465 262T499 195L558 63L585 46L654 41V0H464V30L397 205Q377 258 347 291T259 324H197V60L214 46L276 41V0H33V41L90 46L107 60V611L90 625L33 630V671H276ZM474 892L334 744H284L374 892H474Z"  />
<glyph unicode="&#x40E;" horiz-adv-x="604" d="M219 671V630L162 625L152 614L348 252L497 606L488 620L423 630V671H625V630L561 618L371 184Q360 159 343 126T301 62T244 10T171 -12Q133 -12 105 -3T64 12V160H116L136 58L150 43Q161 36 175 36Q198 36 217 48T251 79T277 120T298 164L48 621L-13 630V671H219ZM234 789Q247 779 266 773T320 766Q355 766 374 772T406 789V858Q412 863 421 866T443 870Q466 870 481 857T496 822Q496 794 478 777T433 749T376 734T320 730Q295 730 265 734T207 748T162 776T144 822Q144 844 159 857T197 870Q210 870 219 867T234 858V789Z"  />
<glyph unicode="&#x40F;" horiz-adv-x="724" d="M276 671V630L214 625L197 611V46H527V611L510 625L448 630V671H691V630L634 625L617 611V60L634 46L691 41V0H420L406 -15L390 -200H334L318 -15L304 0H33V41L90 46L107 60V611L90 625L33 630V671H276Z"  />
<glyph unicode="&#x410;" horiz-adv-x="640" d="M201 297H403L300 574L201 297ZM350 679L590 53L650 41V0H423V41L485 46L492 60L420 251H184L113 60L123 46L188 41V0H-8V41L50 53L284 679H350Z"  />
<glyph unicode="&#x411;" horiz-adv-x="600" d="M197 50Q217 48 234 47T270 46Q286 46 305 47T345 52T384 64T418 86Q444 110 451 140T459 194Q459 217 453 246T423 301Q397 328 363 335T297 342Q272 342 246 340T197 334V50ZM507 671V525H451L437 610L423 625H197V382Q240 387 271 387T310 388Q354 388 398 379T478 349T536 290T559 196Q559 164 547 126T494 54Q472 36 446 26T394 9T342 2T297 0H33V41L90 46L107 60V611L90 625L33 630V671H507Z"  />
<glyph unicode="&#x412;" horiz-adv-x="604" d="M197 50Q217 48 234 47T270 46Q295 46 328 49T390 66T439 109T459 190Q459 210 453 237T422 287Q408 300 390 307T354 317T320 322T294 323Q283 323 270 323T243 321T217 319T197 317V50ZM197 367Q207 366 216 366Q225 366 234 366Q287 366 322 377T379 408T410 452T419 503Q419 542 404 566T364 603T312 622T259 627Q238 627 220 626T197 624V367ZM288 671Q325 671 368 665T444 641Q486 618 501 585T517 513Q517 484 508 456T471 404Q451 387 423 375T372 358V356Q396 355 431 348T495 324Q530 301 544 268T559 192Q559 160 547 123T494 53Q472 35 446 25T393 9T341 2T297 0H33V41L90 46L107 60V611L90 625L33 630V671H288Z"  />
<glyph unicode="&#x413;" horiz-adv-x="546" d="M41 41L98 46L115 60V611L98 625L33 630V671H513V489H461L443 609L429 625H205V60L222 46L293 41V0H41V41Z"  />
<glyph unicode="&#x414;" horiz-adv-x="660" d="M461 46V625H315Q308 550 297 476T266 330T212 186T127 46H461ZM625 671V630L568 625L551 611V56L563 46H637V-170H581L561 -15L547 0H85L71 -15L51 -170H-5V46H57Q105 104 139 167T198 312Q209 347 218 385T234 462T246 539T255 611L239 630H153V671H625Z"  />
<glyph unicode="&#x415;" horiz-adv-x="576" d="M33 41L90 46L107 60V611L90 625L33 630V671H512V525H456L442 610L428 625H197V372H361L375 386L386 459H432V239H386L375 312L361 326H197V46H464L478 61L492 163H548V0H33V41Z"  />
<glyph unicode="&#x416;" horiz-adv-x="914" d="M576 671V630L517 625L500 611V360H549Q576 360 607 379T659 453L697 552Q707 578 719 603T749 647Q770 669 790 674T822 679Q852 679 871 662T890 618Q890 597 879 584T856 566L784 608Q770 591 764 577T749 542L713 446Q693 394 667 374T618 346V344Q656 337 692 306T758 212L828 63L855 46L924 41V0H742V30L662 220Q644 263 615 290T538 318H500V60L517 46L576 41V0H338V41L397 46L414 60V318H376Q328 318 299 291T252 220L172 30V0H-10V41L59 46L86 63L156 212Q185 275 221 306T296 344V346Q274 353 248 373T201 446L165 542Q157 562 151 576T130 608L58 566Q46 571 35 584T24 618Q24 645 43 662T92 679Q104 679 124 674T165 647Q183 628 195 603T217 552L255 453Q276 399 307 380T365 360H414V611L397 625L338 630V671H576Z"  />
<glyph unicode="&#x417;" horiz-adv-x="560" d="M60 655Q123 675 169 679T242 683Q283 683 325 677T402 653T459 602T481 515Q481 491 472 467T445 422T401 385T340 360V358Q378 356 410 343T465 309T502 259T515 197Q515 149 497 110T437 41Q416 26 390 16T336 0T282 -9T233 -12Q224 -12 206 -11T162 -7T105 2T40 20V196H96L111 81L124 64Q144 52 168 45T228 38Q268 38 302 48T361 76T400 122T415 184Q415 233 397 261T352 303T298 321T248 325Q225 325 205 323T162 313V373Q167 373 183 372T217 371Q247 371 278 376T336 404Q362 425 372 450T383 505Q383 541 371 565T338 605T293 626T243 633Q217 633 193 628T142 612L127 595L116 500H60V655Z"  />
<glyph unicode="&#x418;" horiz-adv-x="750" d="M276 671V630L214 625L197 611V158L553 591V611L536 625L474 630V671H717V630L660 625L643 611V60L660 46L717 41V0H474V41L536 46L553 60V523L197 90V60L214 46L276 41V0H33V41L90 46L107 60V611L90 625L33 630V671H276Z"  />
<glyph unicode="&#x419;" horiz-adv-x="750" d="M289 789Q302 779 321 773T375 766Q410 766 429 772T461 789V858Q467 863 476 866T498 870Q521 870 536 857T551 822Q551 794 533 777T488 749T431 734T375 730Q350 730 320 734T262 748T217 776T199 822Q199 844 214 857T252 870Q265 870 274 867T289 858V789ZM276 671V630L214 625L197 611V158L553 591V611L536 625L474 630V671H717V630L660 625L643 611V60L660 46L717 41V0H474V41L536 46L553 60V523L197 90V60L214 46L276 41V0H33V41L90 46L107 60V611L90 625L33 630V671H276Z"  />
<glyph unicode="&#x41A;" horiz-adv-x="644" d="M276 671V630L214 625L197 611V366H270Q281 366 298 369T333 386Q353 401 366 423T384 457L427 553Q437 575 449 597T476 638T510 667T555 679Q585 679 604 664T624 618Q624 599 615 585T590 564L518 608Q502 588 496 574T482 542L439 446Q418 398 393 378T347 350V348Q379 342 403 327T443 294Q452 283 465 262T499 195L558 63L585 46L654 41V0H464V30L397 205Q377 258 347 291T259 324H197V60L214 46L276 41V0H33V41L90 46L107 60V611L90 625L33 630V671H276Z"  />
<glyph unicode="&#x41B;" horiz-adv-x="636" d="M603 671V630L546 625L529 611V60L546 46L603 41V0H360V41L422 46L439 60V625H281Q279 587 275 544T267 459T257 378T247 310Q238 257 221 200T180 96T122 19T46 -12Q37 -12 26 -10T4 -2T-14 17T-21 49Q-21 72 -9 86T21 106L95 62Q111 85 125 111T151 169T173 243T192 337Q197 369 206 440T221 607L206 620L119 630V671H603Z"  />
<glyph unicode="&#x41C;" horiz-adv-x="868" d="M31 41L91 49L109 68V611L96 625L30 630V671H242V644L430 142L620 640V671H835V630L773 625L761 611V60L773 46L835 41V0H595V41L661 46L671 60V624L434 0H391L163 614V68L181 49L242 41V0H31V41Z"  />
<glyph unicode="&#x41D;" horiz-adv-x="738" d="M276 671V630L214 625L197 611V375H541V611L524 625L462 630V671H705V630L648 625L631 611V60L648 46L705 41V0H462V41L524 46L541 60V329H197V60L214 46L276 41V0H33V41L90 46L107 60V611L90 625L33 630V671H276Z"  />
<glyph unicode="&#x41E;" horiz-adv-x="732" d="M364 634Q307 634 266 610T199 545T160 450T148 337Q148 322 149 298T156 244T173 184T204 124Q222 97 243 81T285 54T328 41T367 37Q380 37 399 39T440 50T483 75T525 118Q546 146 557 177T575 239T582 294T584 334Q584 412 564 473T509 573Q489 594 468 606T428 624T391 632T364 634ZM369 687Q444 687 503 660T604 585T667 474T689 336Q689 255 664 191T599 83Q582 65 560 48T509 16T445 -7T367 -16Q289 -16 232 11T137 79Q122 94 106 117T75 172T52 245T43 336Q43 388 53 430T79 506T115 565T155 609Q170 622 190 636T237 661T297 679T369 687Z"  />
<glyph unicode="&#x41F;" horiz-adv-x="718" d="M685 671V630L628 625L611 611V60L628 46L685 41V0H442V41L504 46L521 60V625H197V60L214 46L276 41V0H33V41L90 46L107 60V611L90 625L33 630V671H685Z"  />
<glyph unicode="&#x420;" horiz-adv-x="566" d="M205 305Q230 300 248 300T272 299Q308 299 338 310T391 342T426 396T439 469Q439 501 431 530T398 583Q383 597 366 605T330 618T294 624T260 625Q243 625 229 625T205 623V305ZM41 41L98 46L115 60V611L98 625L33 630V671H261Q346 671 400 657T485 616T527 555T539 477Q539 413 518 370T461 301T379 264T281 253Q263 253 239 254T205 257V60L222 46L293 41V0H41V41Z"  />
<glyph unicode="&#x421;" horiz-adv-x="632" d="M588 23Q541 6 491 -3T390 -12Q360 -12 327 -8T261 8T196 40T135 92Q123 104 108 125T78 177T53 248T43 340Q43 386 52 425T76 497T110 555T152 600Q170 616 193 631T248 657T316 676T400 683Q464 683 511 672T588 649V495H532L517 586L504 604Q481 615 455 622T393 630Q322 630 275 604T200 537T160 443T148 339Q148 268 166 216T211 129Q223 114 240 99T281 70T336 49T406 41Q433 41 454 45T494 54L510 70L532 181H588V23Z"  />
<glyph unicode="&#x422;" horiz-adv-x="594" d="M578 671V515H523L509 610L495 625H342V60L359 46L426 41V0H168V41L235 46L252 60V625H99L85 610L71 515H16V671H578Z"  />
<glyph unicode="&#x423;" horiz-adv-x="604" d="M219 671V630L162 625L152 614L348 252L497 606L488 620L423 630V671H625V630L561 618L371 184Q360 159 343 126T301 62T244 10T171 -12Q133 -12 105 -3T64 12V160H116L136 58L150 43Q161 36 175 36Q198 36 217 48T251 79T277 120T298 164L48 621L-13 630V671H219Z"  />
<glyph unicode="&#x424;" horiz-adv-x="752" d="M421 164H441Q497 164 533 181T591 225T620 287T629 354Q629 399 615 439T571 505Q557 517 526 532T441 547H421V164ZM331 547H311Q252 547 216 530T159 485T131 423T123 354Q123 321 131 287T161 226T218 181T311 164H331V547ZM502 700V659L438 654L421 640V593H443Q460 593 483 592T531 585T583 569T633 540Q643 532 658 518T686 481T709 427T719 354Q719 294 698 251T639 178Q629 170 613 160T572 140T517 125T445 118H421V60L438 46L502 41V0H250V41L314 46L331 60V118H307Q267 118 236 124T180 140T140 159T113 178Q75 208 54 251T33 354Q33 395 42 426T65 480T93 517T119 540Q143 558 169 568T220 584T269 591T309 593H331V640L314 654L250 659V700H502Z"  />
<glyph unicode="&#x425;" horiz-adv-x="600" d="M252 671V630L192 625L184 613L315 407L457 609L448 622L390 630V671H594V630L530 621L347 360L541 53L609 41V0H356V41L423 48L430 62L289 289L131 65L137 47L204 41V0H-9V41L57 54L258 335L77 618L11 630V671H252Z"  />
<glyph unicode="&#x426;" horiz-adv-x="720" d="M276 671V630L214 625L197 611V46H521V611L504 625L442 630V671H685V630L628 625L611 611V56L623 46H697V-170H641L621 -15L607 0H33V41L90 46L107 60V611L90 625L33 630V671H276Z"  />
<glyph unicode="&#x427;" horiz-adv-x="662" d="M251 671V630L194 625L177 611V458Q177 437 181 415T199 374T241 344T314 332Q344 332 384 337T465 355V611L448 625L386 630V671H629V630L572 625L555 611V60L572 46L629 41V0H377V41L448 46L465 60V305Q420 293 375 286T290 279Q230 279 187 294T121 336Q108 351 101 366T91 398T88 430T87 463V611L70 625L13 630V671H251Z"  />
<glyph unicode="&#x428;" horiz-adv-x="972" d="M276 671V630L214 625L197 611V46H441V611L424 625L362 630V671H610V630L548 625L531 611V46H775V611L758 625L696 630V671H939V630L882 625L865 611V60L882 46L939 41V0H33V41L90 46L107 60V611L90 625L33 630V671H276Z"  />
<glyph unicode="&#x429;" horiz-adv-x="974" d="M276 671V630L214 625L197 611V46H441V611L424 625L362 630V671H610V630L548 625L531 611V46H775V611L758 625L696 630V671H939V630L882 625L865 611V56L877 46H951V-170H895L875 -15L861 0H33V41L90 46L107 60V611L90 625L33 630V671H276Z"  />
<glyph unicode="&#x42A;" horiz-adv-x="720" d="M323 50Q343 48 361 47T399 46Q414 46 433 47T471 52T510 64T544 87Q570 111 577 141T585 198Q585 221 579 250T548 304Q522 331 487 338T420 346Q399 346 375 345T323 338V50ZM404 671V630L340 625L323 611V386Q348 389 374 390T427 392Q461 392 506 385T590 358T657 299T685 199Q685 168 673 129T620 55Q598 37 572 26T520 9T468 2T423 0H159V41L216 46L233 60V625H99L85 610L71 515H16V671H404Z"  />
<glyph unicode="&#x42B;" horiz-adv-x="850" d="M572 41L636 46L653 60V611L636 625L572 630V671H817V630L760 625L743 611V60L760 46L817 41V0H572V41ZM197 50Q214 48 228 47T259 46Q274 46 293 47T332 52T371 64T406 87Q432 111 439 142T447 198Q447 220 441 249T410 304Q384 330 348 338T277 346Q257 346 237 345T197 338V50ZM278 671V630L214 625L197 611V386Q226 390 249 391T287 392Q322 392 367 385T452 358T519 299T547 199Q547 168 535 129T482 55Q459 37 433 26T380 9T328 2T283 0H33V41L90 46L107 60V611L90 625L33 630V671H278Z"  />
<glyph unicode="&#x42C;" horiz-adv-x="594" d="M197 50Q217 48 235 47T273 46Q288 46 307 47T345 52T384 64T418 87Q444 111 451 141T459 198Q459 221 453 250T422 304Q396 331 361 338T294 346Q273 346 249 345T197 338V50ZM278 671V630L214 625L197 611V386Q222 389 248 390T301 392Q335 392 380 385T464 358T531 299T559 199Q559 168 547 129T494 55Q472 37 446 26T394 9T342 2T297 0H33V41L90 46L107 60V611L90 625L33 630V671H278Z"  />
<glyph unicode="&#x42D;" horiz-adv-x="636" d="M100 181L122 70L138 54Q161 47 184 44T240 41Q296 41 342 57T426 121Q457 161 472 216T488 322H198V368H488Q486 419 472 466T429 549T355 608T245 630Q210 630 184 623T134 604L121 586L106 495H50V649Q103 669 151 676T238 683Q319 683 381 661T486 600Q507 582 526 556T560 497T584 424T593 336Q593 245 564 180T488 72T378 9T250 -12Q218 -12 166 -7T44 23V181H100Z"  />
<glyph unicode="&#x42E;" horiz-adv-x="1008" d="M654 634Q590 634 548 606T481 534T446 438T436 337Q436 282 448 224T490 124Q507 98 527 81T569 55T610 41T649 37Q700 37 739 61T806 126T846 221T860 334Q860 385 850 438T815 534T751 606T654 634ZM336 375Q340 443 364 500T428 598T525 663T652 687Q691 687 723 680T781 661T826 636T860 609Q908 564 936 495T965 337Q965 256 942 192T877 83Q861 65 840 48T790 16T726 -7T648 -16Q606 -16 572 -8T511 14T462 45T425 79Q390 119 363 183T336 329H197V60L214 46L276 41V0H33V41L90 46L107 60V611L90 625L33 630V671H276V630L214 625L197 611V375H336Z"  />
<glyph unicode="&#x42F;" horiz-adv-x="630" d="M433 625H381H373Q344 625 308 621T242 596Q209 572 200 540T191 484Q191 467 195 445T218 402T271 368T366 354Q383 354 402 354T433 356V625ZM597 630L540 625L523 611V60L540 46L597 41V0H359V41L416 46L433 60V306Q428 306 409 307T374 308Q331 308 300 288T247 212L176 30V0H-10V41L59 46L86 63L141 182Q151 203 162 225T189 267T225 301T273 322V324Q243 325 211 334T153 362T110 413T93 488Q93 551 119 587T183 642T259 666T326 671H597V630Z"  />
<glyph unicode="&#x430;" horiz-adv-x="506" d="M334 268Q302 259 264 247T200 222Q188 216 176 209T153 191T137 166T130 130Q130 116 134 102T147 75T171 55T210 47Q230 47 258 55T334 92V268ZM334 58Q276 17 237 4T170 -9Q136 -9 112 2T73 33T50 75T42 122Q42 150 51 170T74 205T107 230T143 247Q156 252 172 258T211 270T264 285T334 303V335Q334 350 334 369T325 405T299 434T246 446Q226 446 206 442T167 431V347H98Q89 347 78 351T67 373Q67 393 77 413T112 451T174 479T267 490Q276 490 290 490T322 485T356 474T386 452Q398 440 404 425T414 395T417 368T418 347V57L435 36H488V0H348L334 58Z"  />
<glyph unicode="&#x431;" horiz-adv-x="546" d="M284 446Q234 446 205 420T161 359T142 290T137 241Q137 218 141 183T163 112Q175 88 189 73T218 50T247 38T275 35Q299 35 327 47T378 94Q402 130 408 170T415 243Q415 267 410 301T390 368T350 423T284 446ZM509 746Q502 705 487 681T453 644T416 626T384 619L290 606Q254 601 223 589T168 551T130 484T112 380H114Q125 399 140 419T177 454T228 480T294 490Q346 490 386 471T453 418T495 341T509 246Q509 179 489 133T440 58Q417 34 377 13T275 -9Q224 -9 187 6T124 45T82 99T58 160T46 219T43 268Q43 297 46 329T54 395T68 461T87 522Q106 571 132 602T189 652T253 680T322 694L406 707Q426 710 446 717T475 746H509Z"  />
<glyph unicode="&#x432;" horiz-adv-x="510" d="M185 46Q205 41 222 40T261 38Q283 38 305 43T346 59T376 90T388 137Q388 157 382 178T351 216Q331 229 306 231T261 234Q241 234 222 233T185 229V46ZM185 271Q199 269 211 269T240 268Q256 268 278 270T319 280T352 307T366 357Q366 384 356 400T331 426T297 439T260 443Q241 443 223 442T185 435V271ZM278 481Q330 481 363 472T415 448T441 414T448 372Q448 328 421 298T352 257V255Q373 253 394 246T433 226T462 190T474 137Q474 113 463 85T417 33Q385 11 350 6T283 0H30V36L84 41L101 57V424L84 440L30 445V481H278Z"  />
<glyph unicode="&#x433;" horiz-adv-x="440" d="M30 36L84 41L101 57V424L84 440L30 445V481H424V316H373L359 419L344 435H185V57L202 41L272 36V0H30V36Z"  />
<glyph unicode="&#x434;" horiz-adv-x="514" d="M329 46V435H235Q227 391 214 342T184 241T145 140T98 46H329ZM484 481V445L430 440L413 424V56L425 46H490V-140H439L421 -16L406 0H74L59 -16L41 -140H-10V46H40Q71 92 94 141T135 239T164 334T183 422L166 440L104 445V481H484Z"  />
<glyph unicode="&#x435;" horiz-adv-x="490" d="M359 305V330Q359 345 355 364T345 395Q343 399 337 408T321 425T295 439T257 446Q225 446 202 433T163 400T139 355T128 305H359ZM448 51Q408 23 361 7T264 -9Q207 -9 165 10T94 62T51 140T37 237Q37 294 55 342T107 425Q117 435 132 446T167 468T212 484T269 490Q298 490 329 482T387 451T430 390T447 291Q447 277 447 263H123V248Q123 211 133 177T164 114T216 66T291 48Q316 48 355 58T448 106V51Z"  />
<glyph unicode="&#x436;" horiz-adv-x="734" d="M472 481V445L422 440L405 424V270H439Q474 270 495 288T527 332L556 408Q561 420 568 434T585 461T611 481T647 490Q672 490 691 476T710 435Q710 425 705 410T682 386L614 426Q606 416 604 410T598 394L571 323Q568 315 564 305T552 286T532 268T502 256V254Q528 251 556 231T608 159L657 55L674 43L734 36V0H586V32L537 147Q531 161 524 175T506 200T483 219T451 226H405V57L422 41L472 36V0H262V36L312 41L329 57V226H283Q265 226 252 219T228 201T211 175T197 147L148 32V0H0V36L60 43L77 55L126 159Q150 210 178 230T232 254V256Q214 260 202 268T183 285T171 305T163 323L136 394Q133 403 131 409T120 426L52 386Q35 395 30 410T24 435Q24 461 43 475T87 490Q108 490 123 482T148 461T166 435T178 408L207 332Q217 306 238 288T295 270H329V424L312 440L262 445V481H472Z"  />
<glyph unicode="&#x437;" horiz-adv-x="426" d="M138 273Q159 270 184 270Q197 270 215 272T249 283T277 310T288 360Q288 389 278 406T252 432T221 443T193 446Q174 446 153 442T109 427L98 356H50V469Q104 483 140 486T196 490Q220 490 251 487T309 472T355 436T374 370Q374 330 346 300T271 258V256Q290 254 311 248T352 229T383 193T396 136Q396 91 376 63T324 18T256 -3T187 -9Q135 -9 95 -2T30 12V142H78L92 57Q118 43 142 39T185 35Q207 35 228 40T267 56T294 86T304 134Q304 167 291 185T261 213T226 224T197 226Q183 226 163 225T138 222V273Z"  />
<glyph unicode="&#x438;" horiz-adv-x="602" d="M30 36L84 41L101 57V424L84 440L30 445V481H250V445L202 440L185 424V151L417 400V424L400 440L352 445V481H572V445L518 440L501 424V57L518 41L572 36V0H352V36L400 41L417 57V338L185 89V57L202 41L250 36V0H30V36Z"  />
<glyph unicode="&#x439;" horiz-adv-x="602" d="M225 615Q239 605 256 600T301 594Q328 594 345 599T377 615V693Q382 701 392 708T420 716Q440 716 453 703T467 667Q467 642 454 622T419 587T366 564T301 556Q266 556 236 564T184 586T148 621T135 667Q135 690 148 703T182 716Q200 716 210 709T225 693V615ZM30 36L84 41L101 57V424L84 440L30 445V481H250V445L202 440L185 424V151L417 400V424L400 440L352 445V481H572V445L518 440L501 424V57L518 41L572 36V0H352V36L400 41L417 57V338L185 89V57L202 41L250 36V0H30V36Z"  />
<glyph unicode="&#x43A;" horiz-adv-x="536" d="M30 36L84 41L101 57V424L84 440L30 445V481H250V445L202 440L185 424V270H233Q262 270 286 284T324 331L358 409Q372 444 395 467T455 490Q486 490 502 474T518 435Q518 402 490 386L420 426Q412 417 409 410T402 394L372 323Q356 285 336 272T304 256V254Q327 249 341 239T366 217T382 192T396 166L451 55L468 43L536 36V0H370V32L316 156Q299 195 279 210T231 226H185V59L202 41L250 36V0H30V36Z"  />
<glyph unicode="&#x43B;" horiz-adv-x="516" d="M486 481V445L432 440L415 424V57L432 41L486 36V0H266V36L314 41L331 57V435H221Q219 380 212 318T194 205Q177 131 158 92T122 35Q108 19 87 5T35 -9Q18 -9 8 -3T-9 11T-17 28T-20 43Q-20 60 -11 75T16 100L79 58Q88 68 96 82T114 116T131 163T147 226Q156 272 161 325T169 422L152 440L90 445V481H486Z"  />
<glyph unicode="&#x43C;" horiz-adv-x="700" d="M228 481V457L352 114L476 457V481H670V445L616 440L599 424V57L616 41L670 36V0H450V36L498 41L515 57V440L353 0H317L153 440V57L170 41L218 36V0H30V36L84 41L101 57V424L84 440L30 445V481H228Z"  />
<glyph unicode="&#x43D;" horiz-adv-x="594" d="M30 36L84 41L101 57V424L84 440L30 445V481H250V445L202 440L185 424V274H409V424L392 440L344 445V481H564V445L510 440L493 424V57L510 41L564 36V0H344V36L392 41L409 57V228H185V57L202 41L250 36V0H30V36Z"  />
<glyph unicode="&#x43E;" horiz-adv-x="540" d="M268 446Q252 446 225 438T173 397Q150 366 141 325T131 241Q131 211 136 178T157 112Q169 88 183 73T212 50T241 38T269 35Q293 35 321 47T372 94T402 167T409 240Q409 256 408 275T402 316T388 358T365 397Q339 429 312 437T268 446ZM271 490Q325 490 368 471T441 417T487 338T503 240Q503 179 483 134T434 58Q411 34 371 13T269 -9Q236 -9 210 -2T162 15T126 38T100 63Q74 91 56 134T37 240Q37 288 51 333T93 413T166 469T271 490Z"  />
<glyph unicode="&#x43F;" horiz-adv-x="576" d="M30 36L84 41L101 57V424L84 440L30 445V481H546V445L492 440L475 424V57L492 41L546 36V0H326V36L374 41L391 57V435H185V57L202 41L250 36V0H30V36Z"  />
<glyph unicode="&#x440;" horiz-adv-x="552" d="M177 58Q203 47 221 44T251 41Q295 41 327 57T382 102T414 167T425 245Q425 281 417 314T390 372T345 411T281 426Q252 426 224 416T177 394V58ZM22 -182L77 -177L93 -161V419H22V450L139 486H177V431Q202 450 222 461T261 479T294 488T324 490Q361 490 395 476T456 434T499 361T515 257Q515 184 492 136T441 61Q412 32 370 15T271 -3Q262 -3 239 -2T177 6V-161L194 -177L258 -182V-218H22V-182Z"  />
<glyph unicode="&#x441;" horiz-adv-x="446" d="M425 42Q368 8 329 0T263 -9Q214 -9 173 7T101 56T54 134T37 240Q37 298 54 344T102 423T179 473T279 490Q320 490 347 481T392 458T416 428T424 396Q424 371 409 356T370 341Q362 341 349 344T323 355V437Q315 442 303 446T273 450Q255 450 228 442T176 404T140 333T129 249Q129 241 130 223T136 183T151 138T179 95T226 64T297 51Q336 51 369 65T425 94V42Z"  />
<glyph unicode="&#x442;" horiz-adv-x="472" d="M107 36L177 41L194 57V435H93L78 419L67 335H16V481H456V335H405L394 419L379 435H278V57L295 41L365 36V0H107V36Z"  />
<glyph unicode="&#x443;" horiz-adv-x="496" d="M217 481V445L164 440L152 424L272 113L397 424L389 440L335 445V481H513V445L455 436L255 -50Q235 -98 220 -123T196 -159Q181 -179 157 -198T94 -218Q61 -218 44 -201T26 -161Q26 -151 31 -136T52 -108L148 -146Q178 -113 196 -74T229 4L60 438L-1 445V481H217Z"  />
<glyph unicode="&#x444;" horiz-adv-x="678" d="M377 39Q390 39 395 39Q441 39 469 55T515 96Q523 108 535 139T547 232Q547 241 546 260T542 302T530 349T507 392Q484 420 453 430T377 441V39ZM301 441Q261 441 228 431T171 392Q156 374 148 350T137 302T132 260T131 232Q131 171 143 140T163 96Q180 71 208 55T283 39Q288 39 301 39V441ZM381 736V481H393Q440 481 486 468T567 424T621 347T641 234Q641 188 628 146T588 73Q568 49 544 35T496 12T449 2T408 0H381V-161L398 -177L462 -182V-218H216V-182L280 -177L297 -161V0H270Q252 -1 229 1T182 12T134 34T90 73Q64 104 51 146T37 234Q37 300 57 347T111 424T191 467T285 481H297V669H220V700L343 736H381Z"  />
<glyph unicode="&#x445;" horiz-adv-x="504" d="M233 481V445L187 438L182 428L266 297L357 425L349 438L301 445V481H481V445L425 434L293 259L440 45L500 37V0H287V37L329 44L334 52L241 201L139 56L144 44L201 37V0H12V37L69 45L213 238L79 433L18 445V481H233Z"  />
<glyph unicode="&#x446;" horiz-adv-x="576" d="M30 36L84 41L101 57V424L84 440L30 445V481H250V445L202 440L185 424V46H391V424L374 440L326 445V481H546V445L492 440L475 424V56L487 46H552V-140H501L483 -16L468 0H30V36Z"  />
<glyph unicode="&#x447;" horiz-adv-x="536" d="M226 481V445L178 440L161 424V321Q161 309 163 295T175 267T201 245T247 236Q270 236 298 242T351 258V424L334 440L286 445V481H506V445L452 440L435 424V57L452 41L506 36V0H280V36L334 41L351 57V214Q322 204 287 197T223 190Q196 190 177 194T143 205T122 216T111 225Q88 246 83 271T77 317V424L60 440L12 445V481H226Z"  />
<glyph unicode="&#x448;" horiz-adv-x="810" d="M30 36L84 41L101 57V424L84 440L30 445V481H248V445L202 440L185 424V46H363V424L346 440L300 445V481H510V445L464 440L447 424V46H625V424L608 440L562 445V481H780V445L726 440L709 424V57L726 41L780 36V0H30V36Z"  />
<glyph unicode="&#x449;" horiz-adv-x="810" d="M30 36L84 41L101 57V424L84 440L30 445V481H248V445L202 440L185 424V46H363V424L346 440L300 445V481H510V445L464 440L447 424V46H625V424L608 440L562 445V481H780V445L726 440L709 424V56L721 46H786V-140H735L717 -16L702 0H30V36Z"  />
<glyph unicode="&#x44A;" horiz-adv-x="586" d="M271 50Q301 44 336 44Q380 44 400 52T429 66Q440 74 451 92T463 143Q463 180 450 201T417 232T377 244T342 246Q322 246 305 244T271 238V50ZM116 36L170 41L187 57V435H93L78 419L67 335H16V481H342V445L288 440L271 424V286Q291 288 309 289T348 290Q386 290 426 284T500 251Q532 226 541 198T551 145Q551 98 530 70T478 26T418 5T369 0H116V36Z"  />
<glyph unicode="&#x44B;" horiz-adv-x="716" d="M460 481H686V445L632 440L615 424V57L632 41L686 36V0H460V36L514 41L531 57V424L514 440L460 445V481ZM185 50Q212 44 244 44Q256 44 277 45T320 56T356 85T371 143Q371 180 358 201T325 232T285 244T249 246Q231 246 216 245T185 238V50ZM30 36L84 41L101 57V424L84 440L30 445V481H256V445L202 440L185 424V286Q204 288 220 289T256 290Q287 290 322 284T386 263T435 219T455 145Q455 98 434 70T382 26T322 5T273 0H30V36Z"  />
<glyph unicode="&#x44C;" horiz-adv-x="500" d="M185 50Q215 44 250 44Q294 44 314 52T343 66Q354 74 365 92T377 143Q377 180 364 201T331 232T291 244T256 246Q236 246 219 244T185 238V50ZM30 36L84 41L101 57V424L84 440L30 445V481H256V445L202 440L185 424V286Q205 288 223 289T262 290Q300 290 340 284T414 251Q446 226 455 198T465 145Q465 98 444 70T392 26T332 5T283 0H30V36Z"  />
<glyph unicode="&#x44D;" horiz-adv-x="472" d="M341 274Q339 307 331 338T305 393T259 431T189 446Q174 446 150 443T99 427L88 356H40V469Q58 474 97 482T195 490Q230 490 272 479T350 441T410 368T435 250Q435 188 414 139T357 55Q316 16 272 4T185 -9Q166 -9 124 -6T30 12V142H78L92 57Q120 44 144 40T189 35Q262 35 301 85T341 220V226H135V274H341Z"  />
<glyph unicode="&#x44E;" horiz-adv-x="792" d="M522 446Q486 446 461 429T419 382T395 316T387 241Q387 218 391 182T413 110Q426 84 441 69T472 47T501 37T523 35Q567 35 594 59T636 117T656 185T661 240Q661 278 656 306T643 353T629 383T618 399Q600 422 574 434T522 446ZM299 274Q303 319 320 358T367 426T435 473T525 490Q585 490 623 469T684 426Q716 393 735 345T755 240Q755 183 737 137T687 58T613 9T523 -9Q470 -9 429 9T359 59T315 134T299 228H185V57L202 41L250 36V0H30V36L84 41L101 57V424L84 440L30 445V481H250V445L202 440L185 424V274H299Z"  />
<glyph unicode="&#x44F;" horiz-adv-x="513" d="M328 432Q310 435 295 436T265 437Q248 437 227 435T187 424T155 396T142 343Q142 317 151 300T176 272T216 258T268 254Q288 254 301 255T328 258V432ZM483 445L429 440L412 424V57L429 41L483 36V0H263V36L311 41L328 57V214H262Q230 214 214 196T187 156L130 32V0H-10V36L40 43L57 55L114 165Q122 179 137 199T185 230V232Q128 235 94 267T60 350Q60 393 78 419T123 459T180 477T236 481H483V445Z"  />
<glyph unicode="&#x451;" horiz-adv-x="490" d="M359 305V330Q359 345 355 364T345 395Q343 399 337 408T321 425T295 439T257 446Q225 446 202 433T163 400T139 355T128 305H359ZM448 51Q408 23 361 7T264 -9Q207 -9 165 10T94 62T51 140T37 237Q37 294 55 342T107 425Q117 435 132 446T167 468T212 484T269 490Q298 490 329 482T387 451T430 390T447 291Q447 277 447 263H123V248Q123 211 133 177T164 114T216 66T291 48Q316 48 355 58T448 106V51ZM290 639Q290 661 305 676T342 691Q364 691 379 676T394 639Q394 617 379 602T342 587Q320 587 305 602T290 639ZM106 639Q106 661 121 676T158 691Q180 691 195 676T210 639Q210 617 195 602T158 587Q136 587 121 602T106 639Z"  />
<glyph unicode="&#x452;" horiz-adv-x="562" d="M180 736V619H380V575H180V431Q200 442 223 453T272 474Q288 480 306 485T345 490Q387 490 413 475T457 435Q467 421 475 402T489 353T498 285T501 192Q501 125 496 76T483 -8T466 -66T450 -104Q437 -128 419 -151T374 -191Q353 -204 327 -211T277 -218Q251 -218 237 -210T217 -192T209 -173T208 -162Q208 -145 218 -132T245 -112L342 -171Q361 -159 371 -145T388 -110Q398 -82 403 -41T410 39T412 108T413 148Q413 210 410 251T401 320T389 362T376 387Q359 411 341 417T301 424Q280 424 252 419T180 392V57L198 41L245 36V0H25V36L79 41L96 57V575H-4V619H96V669H19V700L142 736H180Z"  />
<glyph unicode="&#x453;" horiz-adv-x="440" d="M30 36L84 41L101 57V424L84 440L30 445V481H424V316H373L359 419L344 435H185V57L202 41L272 36V0H30V36ZM380 736L234 546H184L281 736H380Z"  />
<glyph unicode="&#x454;" horiz-adv-x="472" d="M131 220Q131 211 136 184T158 127T208 74T297 51Q323 51 347 56T390 69T423 83T442 94V42Q378 8 335 0T263 -9Q213 -9 172 8T100 58T54 135T37 237Q37 311 61 359T121 437T202 478T289 490Q335 490 364 484T411 466T435 439T442 406Q442 380 426 369T390 357Q373 357 364 362T351 369V433Q334 444 318 447T288 450Q262 450 231 441T172 396Q152 370 142 335T131 268H361V220H131Z"  />
<glyph unicode="&#x455;" horiz-adv-x="400" d="M345 356H297L288 427Q264 440 245 443T215 446Q200 446 185 443T158 433T139 412T131 377Q131 345 154 324T221 283Q255 268 281 254T324 225T351 189T360 141Q360 94 341 65T293 20T231 -3T167 -9Q125 -9 95 -3T42 12V142H90L102 57Q115 50 136 43T184 35Q235 35 258 57T282 115Q282 138 271 154T243 182T206 202T169 219Q120 242 100 257T74 281Q60 298 56 315T51 350Q51 396 71 424T120 466T179 485T228 490Q270 490 297 484T345 469V356Z"  />
<glyph unicode="&#x456;" horiz-adv-x="280" d="M189 486V57L206 41L260 36V0H34V36L88 41L105 57V419H34V450L151 486H189ZM95 650Q95 674 112 691T153 708Q177 708 194 691T211 650Q211 626 194 609T153 592Q129 592 112 609T95 650Z"  />
<glyph unicode="&#x457;" horiz-adv-x="280" d="M170 639Q170 661 185 676T222 691Q244 691 259 676T274 639Q274 617 259 602T222 587Q200 587 185 602T170 639ZM16 639Q16 661 31 676T68 691Q90 691 105 676T120 639Q120 617 105 602T68 587Q46 587 31 602T16 639ZM189 486V57L206 41L260 36V0H34V36L88 41L105 57V419H34V450L151 486H189Z"  />
<glyph unicode="&#x458;" horiz-adv-x="266" d="M37 419V450L154 486H192V84Q192 20 187 -24T170 -99T138 -152T88 -191Q84 -193 75 -197T54 -206T25 -214T-9 -218Q-35 -218 -49 -210T-69 -192T-77 -173T-78 -162Q-78 -145 -68 -132T-41 -112L56 -171Q70 -164 80 -156T96 -132T105 -89T108 -16V419H37ZM88 650Q88 674 105 691T146 708Q170 708 187 691T204 650Q204 626 187 609T146 592Q122 592 105 609T88 650Z"  />
<glyph unicode="&#x459;" horiz-adv-x="730" d="M415 50Q445 44 480 44Q524 44 544 52T573 66Q584 74 595 92T607 143Q607 174 597 192T578 218Q558 237 532 241T486 246Q466 246 449 244T415 238V50ZM486 481V445L432 440L415 424V286Q435 288 453 289T492 290Q530 290 570 284T644 251Q676 226 685 198T695 145Q695 111 682 83T639 33Q622 21 604 15T568 5T536 1T513 0H260V36L314 41L331 57V435H221Q219 380 212 318T194 205Q177 131 158 92T122 35Q108 19 87 5T35 -9Q30 -9 21 -8T2 0Q-13 10 -16 22T-20 43Q-20 60 -11 75T16 100L79 58Q88 68 96 82T114 116T131 163T147 226Q156 272 161 325T169 422L152 440L90 445V481H486Z"  />
<glyph unicode="&#x45A;" horiz-adv-x="800" d="M485 50Q515 44 550 44Q594 44 614 52T643 66Q654 74 665 92T677 143Q677 180 664 201T631 232T591 244T556 246Q536 246 519 244T485 238V50ZM30 36L84 41L101 57V424L84 440L30 445V481H250V445L202 440L185 424V280H401V424L384 440L336 445V481H556V445L502 440L485 424V286Q505 288 523 289T562 290Q600 290 640 284T714 251Q746 226 755 198T765 145Q765 98 744 70T692 26T632 5T583 0H336V36L384 41L401 57V234H185V57L202 41L250 36V0H30V36Z"  />
<glyph unicode="&#x45B;" horiz-adv-x="566" d="M180 736V619H380V575H180V431Q198 442 224 454T272 475Q312 490 345 490Q387 490 411 476T450 442Q478 403 478 339V57L495 41L549 36V0H329V36L377 41L394 57V322Q394 336 391 358T373 398Q358 415 337 419T299 424Q279 424 252 419T180 392V57L198 41L245 36V0H25V36L79 41L96 57V575H-4V619H96V669H19V700L142 736H180Z"  />
<glyph unicode="&#x45C;" horiz-adv-x="536" d="M30 36L84 41L101 57V424L84 440L30 445V481H250V445L202 440L185 424V270H233Q262 270 286 284T324 331L358 409Q372 444 395 467T455 490Q486 490 502 474T518 435Q518 402 490 386L420 426Q412 417 409 410T402 394L372 323Q356 285 336 272T304 256V254Q327 249 341 239T366 217T382 192T396 166L451 55L468 43L536 36V0H370V32L316 156Q299 195 279 210T231 226H185V59L202 41L250 36V0H30V36ZM426 736L280 546H230L327 736H426Z"  />
<glyph unicode="&#x45E;" horiz-adv-x="496" d="M217 481V445L164 440L152 424L272 113L397 424L389 440L335 445V481H513V445L455 436L255 -50Q235 -98 220 -123T196 -159Q181 -179 157 -198T94 -218Q61 -218 44 -201T26 -161Q26 -151 31 -136T52 -108L148 -146Q178 -113 196 -74T229 4L60 438L-1 445V481H217ZM204 615Q218 605 235 600T280 594Q307 594 324 599T356 615V693Q361 701 371 708T399 716Q419 716 432 703T446 667Q446 642 433 622T398 587T345 564T280 556Q245 556 215 564T163 586T127 621T114 667Q114 690 127 703T161 716Q179 716 189 709T204 693V615Z"  />
<glyph unicode="&#x45F;" horiz-adv-x="580" d="M30 36L84 41L101 57V424L84 440L30 445V481H250V445L202 440L185 424V46H395V424L378 440L330 445V481H550V445L496 440L479 424V57L496 41L550 36V0H346L331 -16L316 -170H264L249 -16L234 0H30V36Z"  />
<glyph unicode="&#x490;" horiz-adv-x="520" d="M41 41L98 46L115 60V611L98 625L33 630V671H403L417 686L435 800H487V595H463L403 625H205V60L222 46L293 41V0H41V41Z"  />
<glyph unicode="&#x491;" horiz-adv-x="420" d="M30 36L84 41L101 57V424L84 440L30 445V481H327L342 497L353 591H404V415H384L327 435H185V57L202 41L272 36V0H30V36Z"  />
<glyph unicode="&#x2013;" horiz-adv-x="500" d="M500 271V210H0V271H500Z"  />
<glyph unicode="&#x2014;" horiz-adv-x="1000" d="M0 271H1000V210H0V271Z"  />
<glyph unicode="&#x2018;" horiz-adv-x="201" d="M174 713Q130 662 112 628T94 561Q94 556 94 551Q94 547 96 536H160Q168 525 170 517T173 500Q173 474 156 458T112 442Q78 442 57 467T35 531Q35 554 40 575T56 617T85 661T131 713H174Z"  />
<glyph unicode="&#x2019;" horiz-adv-x="201" d="M31 442Q53 468 68 489T93 528T107 561T111 593Q111 598 111 603Q111 608 109 619H45Q37 630 35 637T32 655Q32 681 49 697T93 713Q127 713 148 688T170 624Q170 601 165 580T149 537T119 492T74 442H31Z"  />
<glyph unicode="&#x201A;" horiz-adv-x="201" d="M31 -164Q54 -137 69 -116T94 -78T107 -45T111 -13Q111 -9 111 -3Q111 2 109 13H45Q37 24 35 32T32 49Q32 75 49 91T92 107Q127 107 148 83T170 18Q170 -29 148 -70T74 -164H31Z"  />
<glyph unicode="&#x201C;" horiz-adv-x="403" d="M376 713Q332 661 314 627T296 562Q296 557 296 552Q296 547 298 536H362Q370 524 372 517T375 499Q375 474 358 458T314 442Q280 442 259 467T237 531Q237 577 258 618T333 713H376ZM174 713Q130 662 112 628T94 561Q94 556 94 551Q94 547 96 536H160Q168 525 170 517T173 500Q173 474 156 458T112 442Q78 442 57 467T35 531Q35 554 40 575T56 617T85 661T131 713H174Z"  />
<glyph unicode="&#x201D;" horiz-adv-x="402" d="M228 442Q271 492 289 527T308 594Q308 599 308 603Q308 608 306 619H242Q234 630 232 638T229 655Q229 681 246 697T290 713Q324 713 345 688T367 624Q367 601 362 580T346 537T316 492T271 442H228ZM27 442Q49 468 64 489T89 528T103 561T107 593Q107 598 107 603Q107 608 105 619H41Q33 630 31 637T28 655Q28 681 45 697T89 713Q123 713 144 688T166 624Q166 601 161 580T145 537T115 492T70 442H27Z"  />
<glyph unicode="&#x201E;" horiz-adv-x="402" d="M228 -164Q272 -112 290 -79T308 -13Q308 -1 306 13H242Q234 24 232 32T229 49Q229 75 246 91T290 107Q324 107 345 83T367 18Q367 -29 345 -70T271 -164H228ZM27 -164Q50 -137 65 -116T90 -78T103 -45T107 -13Q107 -1 105 13H41Q33 24 31 32T28 49Q28 75 45 91T88 107Q123 107 144 83T166 18Q166 -29 144 -70T70 -164H27Z"  />
<glyph unicode="&#x2020;" horiz-adv-x="500" d="M257 460L299 294L257 -129H243L202 294L243 460H257ZM483 483L410 437L269 472V488L410 528L483 483ZM232 488V472L88 437L17 483L88 528L232 488ZM294 642L257 502H243L205 642L249 718L294 642Z"  />
<glyph unicode="&#x2021;" horiz-adv-x="500" d="M257 84L294 -56L249 -132L205 -56L243 84H257ZM483 106L410 60L269 95V111L410 151L483 106ZM232 111V95L88 60L17 106L88 151L232 111ZM257 460L305 294L257 127H243L192 294L243 460H257ZM483 483L410 437L269 472V488L410 528L483 483ZM232 488V472L88 437L17 483L88 528L232 488ZM294 642L257 502H243L205 642L249 718L294 642Z"  />
<glyph unicode="&#x2022;" horiz-adv-x="590" d="M149 370Q149 400 160 426T192 473T238 504T295 516Q325 516 351 505T398 473T429 427T441 370Q441 340 430 314T398 267T352 236T295 224Q265 224 239 235T192 267T161 313T149 370Z"  />
<glyph unicode="&#x2026;" horiz-adv-x="1000" d="M769 55Q769 81 788 100T833 119Q859 119 878 100T897 55Q897 29 878 10T833 -9Q807 -9 788 10T769 55ZM436 55Q436 81 455 100T500 119Q526 119 545 100T564 55Q564 29 545 10T500 -9Q474 -9 455 10T436 55ZM103 55Q103 81 122 100T167 119Q193 119 212 100T231 55Q231 29 212 10T167 -9Q141 -9 122 10T103 55Z"  />
<glyph unicode="&#x2030;" horiz-adv-x="1224" d="M1041 371Q1003 371 984 327T964 196Q964 24 1041 24Q1081 24 1101 68T1122 198Q1122 283 1102 327T1041 371ZM1045 407Q1114 407 1153 351T1193 198Q1193 100 1153 44T1043 -12Q973 -12 933 43T893 196Q893 296 933 351T1045 407ZM669 371Q631 371 612 327T592 197Q592 24 669 24Q709 24 729 68T750 197Q750 283 730 327T669 371ZM673 407Q742 407 781 351T821 197Q821 99 781 44T671 -12Q601 -12 561 43T521 197Q521 297 561 352T673 407ZM669 671L241 0H181L608 671H669ZM179 647Q141 647 122 603T102 473Q102 300 179 300Q219 300 239 344T260 473Q260 559 240 603T179 647ZM183 683Q252 683 291 627T331 473Q331 376 291 320T181 264Q111 264 71 319T31 472Q31 572 71 627T183 683Z"  />
<glyph unicode="&#x2039;" horiz-adv-x="245" d="M199 347L82 240L199 132V67L35 200V280L199 413V347Z"  />
<glyph unicode="&#x203A;" horiz-adv-x="244" d="M209 280V200L46 67V132L163 240L46 347V413L209 280Z"  />
<glyph unicode="&#x20AC;" horiz-adv-x="556" d="M524 495H479L463 593L451 611Q436 619 412 628T354 637Q300 637 262 617T198 564T160 490T143 406H475L451 360H140V296H426L402 250H147Q151 208 166 169T207 100T271 52T359 34Q405 34 441 47L456 63L479 181H524V23Q515 20 498 14T456 2T403 -8T343 -12Q288 -12 242 6T159 58T98 140T63 250H-22L2 296H56V360H-22L2 406H60Q65 453 82 502T133 592T220 657T350 683Q376 683 422 677T524 649V495Z"  />
<glyph unicode="&#x2116;" horiz-adv-x="1052" d="M1006 310V260H732V310H1006ZM869 407Q891 407 907 416T933 441T949 477T954 521Q954 544 949 564T934 601T907 626T869 635Q847 635 831 626T805 601T789 565T784 521Q784 498 789 478T804 441T831 416T869 407ZM869 671Q902 671 929 660T975 629T1005 582T1016 521Q1016 488 1006 461T976 413T929 382T869 371Q836 371 809 382T763 413T733 460T722 521Q722 554 732 581T762 629T809 660T869 671ZM29 41L90 49L108 68V611L90 625L26 630V671H214V646L556 134V604L538 622L478 630V671H688V630L628 622L610 604V0H544L162 568V68L180 49L240 41V0H29V41Z"  />
<glyph unicode="&#x2122;" horiz-adv-x="822" d="M378 421L409 425V634L377 639V662H479V650L547 470L616 649V662H716V639L684 634V425L716 420V399H609V420L639 425V637L547 399H525L437 637V425L468 421V399H378V421ZM256 425L294 421V399H172V420L211 424V639H159L151 633L145 593H118V662H347V593H321L315 633L308 639H256V425Z"  />

</font>
</defs>
</svg>
